<?xml version="1.0" encoding="UTF-8"?>
<svg id="uuid-b20e4345-69be-4646-8c86-51633b15e996" data-name="Layer 2" xmlns="http://www.w3.org/2000/svg" viewBox="0 0 1450.11 228.67">
  <g id="uuid-735003fd-78ae-4a0b-8d14-ce772373761e" data-name="Layer 1">
    <path d="m228.57,85.39c10.66-26.54,21.27-52.68,31.58-78.94C262.02,1.7,264.51-.02,269.7,0c61.15.18,122.31.12,183.46.12,1.65,0,3.3,0,5.61,0-4.65,11.99-9.02,23.59-13.64,35.09-5.59,13.95-5.68,13.91-20.59,13.91-33.33,0-66.65.08-99.98-.1-4.35-.02-6.62,1.29-8.1,5.42-3.63,10.11-7.68,20.08-11.69,30.43h114.09c-1.68,4.1-3.2,7.68-4.61,11.29-3.94,10.05-7.94,20.08-11.7,30.2-1.57,4.22-4.17,5.7-8.69,5.68-34.49-.16-68.98-.04-103.48-.17-3.47-.01-5.21.87-6.49,4.27-5.03,13.31-10.42,26.49-15.87,40.19h120.31c-4.25,10.9-8.33,21.38-12.41,31.86-1.87,4.8-4.01,9.51-5.53,14.41-1.44,4.66-4.4,6.14-8.95,6.07-14.16-.22-28.32-.36-42.47-.37-47.16-.04-94.31,0-141.47,0-1.64,0-3.29,0-5.78,0,19.05-47.91,37.87-95.23,56.84-142.9Z" style="fill: #020202; stroke-width: 0px;"/>
    <path d="m806.31,50.11v177.68h-78.22c.81-12.13,1.61-24.16,2.43-36.55-2.16-.11-3.94-.28-5.73-.28-24.32-.02-48.64.07-72.96-.1-4.33-.03-7.1,1.49-9.48,5.04-6.49,9.66-13.14,19.23-20.06,28.59-1.36,1.84-4.24,3.6-6.44,3.62-23.98.26-47.97.16-73.01.16,3.7-4.84,6.89-9.16,10.24-13.36,44.08-55.33,88.18-110.65,132.3-165.95,11.94-14.97,23.88-29.93,36.01-44.74,1.53-1.86,4.22-3.91,6.39-3.93,25.96-.27,51.93-.17,78.53-.17v50m-111.87,73.63c-3.87,5.46-7.75,10.93-12.02,16.96h53c1.73-26.39,3.44-52.53,5.15-78.67-.48-.1-.97-.21-1.45-.31-14.75,20.49-29.49,40.98-44.69,62.02Z" style="fill: #020202; stroke-width: 0px;"/>
    <path d="m459.7,225.62c-1.74,1.12-3.26,2.55-4.8,2.56-23.49.12-46.99.06-70.48.02-.3,0-.59-.22-1.36-.52,3.76-9.18,7.6-18.32,11.26-27.53,23.7-59.73,47.36-119.48,71.06-179.2,2.2-5.55,4.74-10.98,6.95-16.53,1.2-2.99,3.01-4.37,6.38-4.36,42.49.08,84.99-.25,127.47.29,9.3.12,18.93,2.13,27.78,5.15,18.15,6.19,26.81,21.88,24.06,40.93-1.64,11.37-5.24,21.56-13.27,30.47-10.12,11.24-19.84,23.02-28.26,35.56-9.49,14.14-22.94,20.98-38.37,25.74-16.86,5.2-34.19,4.63-51.46,5.04-9.65.23-19.31.22-28.96.3-3.54.03-6.06.76-7.6,4.79-9.88,25.71-20.09,51.3-30.4,77.27m57.23-144.42c-2.19,5.29-4.38,10.59-6.79,16.42,15.07-.25,29.61,1.35,43.55-3.56,13.92-4.9,23.82-13.74,25.89-29.21,1.35-10.12-2.96-15.77-13.04-16.61-10.42-.87-20.9-1.09-31.35-1.68-3.31-.19-5.1,1.16-6.28,4.32-3.74,9.93-7.76,19.74-11.97,30.31Z" style="fill: #020202; stroke-width: 0px;"/>
    <path d="m59.31,143.12c-6,0-11.52.32-16.99-.09-4.98-.38-7.97,1.09-8.76,6.26-.22,1.43-.88,2.8-1.49,4.69h152.97c-.43,8.71-3.87,12.14-11.78,12.14-45.49,0-90.98-.04-136.47.03-11.31.02-9.27-1.93-13.83,11h153.42c-2.54,7.05-4.45,13.6-7.36,19.67-.86,1.8-4.55,3.13-6.96,3.16-21.83.24-43.66.14-65.49.14-30.16,0-60.32,0-90.48,0-1.8,0-3.59,0-6.07,0,5.24-13.31,10.25-26.1,15.29-38.88,16.27-41.23,32.51-82.47,48.83-123.68,3.7-9.35,3.84-9.3,13.66-9.3,50.49,0,100.98,0,151.47,0,1.99,0,3.98,0,7.22,0-3.21,7.48-6.03,14.41-9.25,21.16-.47.99-2.84,1.44-4.36,1.49-5.82.17-11.69.46-17.47-.05-5.05-.44-7.82,1.35-9.12,6.07-.47,1.7-1.31,3.29-2.13,5.28h28.26c-1.23,3.43-1.95,6.65-3.55,9.35-.78,1.31-3.18,2.21-4.89,2.3-5.82.29-11.67.41-17.48.05-5.21-.32-8.81.79-9.51,6.67-.17,1.42-.97,2.76-1.64,4.57h28.46c-1.61,3.54-2.59,6.76-4.45,9.36-1.01,1.42-3.47,2.4-5.33,2.5-5.82.31-11.69.46-17.48,0-4.89-.38-7.58,1.14-8.3,6.08-.23,1.58-.96,3.08-1.6,5.04h26.36c.02,8.64-3.02,11.81-11,11.83-46.15.11-92.31.21-138.46.33-10.17.03-10.17.07-12.31,11.15h153.4c-.81,2.43-1.57,4.22-2,6.09-.98,4.25-3.4,5.69-7.85,5.67-41.66-.16-83.32-.09-125.48-.09m56.09-55.41c2.78,3.65,4.73,3.15,7.88-2.04-3.21-3.85-4.57-3.64-7.88,2.04m-5.93,14.59v5.78c3.46-1.99,5.78-3.33,7.99-4.6-2.35-5.4-4.92-3.19-7.99-1.18m-22.07-.62c.12,1.62.24,3.25.35,4.87,2.5-1.19,4.99-2.38,7.49-3.57-.1-.57-.2-1.14-.3-1.7-2.3,0-4.6,0-7.54.4m11.89-29.89c-.08.14-.18.28-.22.44-.03.11,0,.34.06.36,4.07,1.37,6.42-.95,8.53-3.93-2.92-4.55-5.85-1.24-8.69-.29.27,1.02.5,1.9.33,3.42m38.96,29.1c-5.43-.7-6.98.8-5.78,5.57,5.2.3,6.83-1.01,5.78-5.57m16.17,1.36c.15,1.47.31,2.94.59,5.7,3.04-1.82,5.45-3.27,7.94-4.75-2.77-4.17-5.31-2.69-8.53-.95m-71.79-35.94c-.93.19-2.2.08-2.72.65-1.23,1.34-2.11,3.01-3.14,4.54,1.62.3,3.81,1.4,4.73.73,1.49-1.08,5.04-2.47,1.13-5.92m-14.63,33.95c-2.47,1.19-6.2,1.51-3.57,7.07,2.58-1.25,5.15-2.49,8.72-4.21-2.31-1.59-3.34-2.3-5.15-2.86m100.27-27.79c3.79,1.12,5.79-.99,7.31-3.94-1.05-.92-2.02-1.77-3.19-2.8-1.27,2.26-6.72,1.25-4.12,6.74m-21.29-5.28c-.89,1.48-1.78,2.95-2.67,4.43.46.56.92,1.13,1.38,1.69,1.97-.91,4.05-1.64,5.83-2.83.59-.39.38-1.97.54-3-1.45-.16-2.89-.32-5.08-.29m-35.42-19.02c-1.69.54-3.39,1.09-4.83,1.55v6.17c3.14-1.84,5.6-3.29,8.53-5.01-1.59-1.15-2.34-1.69-3.7-2.71m56.83,36.71c-1.81-2.62-4.06-1.93-5.9-.36-1.18,1.01-1.72,2.77-2.65,4.36,5.05,2,7.17-.41,8.55-4m-67.8-39.04c2.12-1.32,4.24-2.63,6.35-3.93-2.9-4-5.68-2.32-7.95-.5-.58.46.48,2.96,1.61,4.43m20.74-2.87c.45,1.01.9,2.02,1.35,3.03,2.34-1.12,4.68-2.23,7.38-3.52-3.68-4.2-6.26-3.69-8.73.49m-40.35,2.44c.93-1.27,1.85-2.54,3.8-5.22-3.12,0-5.02-.45-6.49.15-1.05.44-1.52,2.29-2.25,3.51,1.41.62,2.83,1.24,4.94,1.56m3.56,32.6c-.05,1.1-.1,2.2-.22,4.79,3.47-1.88,6.05-3.28,8.85-4.8-3.55-4.66-5.9-2.27-8.63.01m84.87,34.68c-.5-1.47-1-2.95-1.5-4.42-.54-.05-1.07-.1-1.61-.15-1.44,2.05-2.88,4.09-4.32,6.14.54.59,1.08,1.19,1.62,1.78,1.81-.93,3.62-1.85,5.81-3.35m27.5-70.39c-1.17-.96-2.36-2.73-3.52-2.72-4.12.04-3.7,3.56-4.48,8,3.21-2,5.38-3.35,8.01-5.27m-74.46,29.02c4.28,2.76,4.59,2.65,7.69-2.92-3.71-3.54-6.21-2.84-7.69,2.92m46.46-31.15c-1.01,1.47-2.01,2.93-3.02,4.4.52.6,1.03,1.2,1.55,1.79,2.43-1.22,4.87-2.43,7.3-3.65-.09-.6-.19-1.2-.28-1.79-1.62-.36-3.23-.72-5.55-.75m-90.47,53.64c-.37,1.3-.74,2.59-1.1,3.89.36.45.73.9,1.09,1.34l7.88-3.77c-.23-.83-.46-1.67-.7-2.5-2.18.19-4.37.37-7.17,1.03m92.85-1.06c-1.04,1.75-2.08,3.49-3.12,5.24.56.47,1.12.94,1.68,1.41,2.35-1.5,4.7-3,7.05-4.5-.15-.51-.3-1.01-.46-1.52-1.48-.34-2.96-.69-5.16-.63m-31.87,20.24c1.08.78,2.42,2.42,3.18,2.18,1.9-.6,3.53-2.04,5.45-3.26-3.96-3.7-4.52-3.63-8.63,1.09m-39.74,1.57c.91-1.05,1.82-2.11,2.74-3.18-1.07-1.35-1.87-2.35-3.33-4.18-2,2.56-3.73,4.78-5.47,7.01.37.37.74.73,1.11,1.1,1.43-.1,2.85-.2,4.94-.75m45.32-68.96c3.74,1.18,5.46-1.11,7.32-4.91-2.14-.24-4.04-.86-5.78-.56-2.8.48-2.98,2.64-1.54,5.48m33.99,29.68c-3.44.87-4.04,3.21-3.15,7.27,2.81-1.57,5.27-2.95,8.76-4.91-2.48-1.33-3.68-1.97-5.61-2.36m-4.18-21.02c2.65-.83,5.29-1.66,7.94-2.5-.12-.85-.23-1.69-.35-2.54-1.8-.1-3.61-.34-5.41-.26-3.18.14-2.29,2.87-2.17,5.3m-15.43-3.71c-1.02-3.15-3.15-3.29-5.31-1.49-1.23,1.02-1.81,2.83-2.68,4.28.61.58,1.21,1.16,1.82,1.74,1.98-1.26,3.95-2.51,6.17-4.53m-16.05,10.59c.24-1.04.48-2.07.73-3.11-1.47-.18-3.42-1.02-4.31-.38-1.44,1.03-2.2,3.03-3.24,4.62.44.42.87.84,1.31,1.26,1.73-.56,3.46-1.12,5.51-2.39m-22.38-2.97c-3.42-2.66-5.29-1.24-6.52,5.08,3.68.09,7.07-.05,6.52-5.08m-30.93-5.54c.1-1.24.19-2.48.29-3.73-1.35.02-3.08-.48-3.98.17-1.41,1.01-2.27,2.8-3.36,4.25.37.42.73.85,1.1,1.27,1.81-.45,3.62-.9,5.95-1.97m50.75,36.97c1.59-1.32,3.19-2.65,4.78-3.97-.72-.83-1.58-2.43-2.14-2.33-1.68.3-3.63.92-4.68,2.11-.5.57.79,2.72,2.05,4.19m-34.47,2.84c-3.99-.37-6.23.93-5.1,6.89,2.61-1.52,4.67-2.62,6.56-3.95.19-.13-.54-1.6-1.46-2.94m47.87-15.97c-.64,1.41-1.27,2.82-1.91,4.24.48.47.95.93,1.43,1.4,1.96-1.15,4.03-2.17,5.82-3.56.41-.32-.12-2.76-.3-2.77-1.43-.08-2.88.19-5.03.7m-16.82,1.72c-1.01-1.1-2.3-3.29-2.97-3.11-2.77.73-5.3,2.21-3.22,7.26,2.08-1.2,3.98-2.3,6.19-4.15m-42.99,11.33c2.22-1,4.45-2,7.14-3.22-1.95-1.57-3.02-2.43-4.2-3.38-2.88,1.51-6.98,2.34-2.94,6.6m72.56-29.33c-.97-1.06-2.64-3.14-2.81-3.03-1.93,1.33-3.64,2.99-5.41,4.56.48.71.96,1.42,1.44,2.13,2.09-1.02,4.18-2.03,6.78-3.66m-93.39,29.48c1.28-1.46,2.55-2.92,3.83-4.38-.96-.72-2.29-2.26-2.82-2.02-1.65.74-2.99,2.15-4.45,3.29.89,1.04,1.78,2.09,3.45,3.11m52.73,2.89c-2.72,1.07-3.8,2.81-2.64,5.34,3.79,1.31,6.1-.17,7.2-3.36.1-.3-2.5-1.53-4.57-1.98m25.38,4.7c.35-1.41.69-2.81,1.04-4.22-1.15-.2-2.68-.96-3.37-.49-1.39.95-2.33,2.56-3.45,3.9,1.76.48,3.53.96,5.78.81m-91.59.89c1.04-1.19,2.09-2.39,4.24-4.85-3-.17-5.16-.92-6.57-.2-1.4.72-2.05,2.91-3.49,5.18,2.72,0,3.86,0,5.82-.13m11.77,12.85v5.37c3.02-1.51,5.48-2.74,8.03-4.01-2.51-3.95-4.87-3.47-8.03-1.35m19.6-50.98c.61,1.04,1.55,3.04,1.79,2.96,2.31-.77,4.5-1.89,6.97-3.02-3.58-4.17-6.07-2.88-8.76.06m19.59,15.23l-4.18,4.66c.52.68,1.05,1.36,1.57,2.04,2.41-1.2,4.82-2.39,8.36-4.15-2.56-1.4-3.79-2.07-5.75-2.55m20.94-26.87c-1.05,1.69-2.1,3.38-3.15,5.08.45.37.9.73,1.35,1.1,2.43-1.18,4.86-2.36,8.69-4.22-2.92-1.11-4.58-1.75-6.89-1.95m-56.32,12.58c-.06-1.11-.12-2.22-.18-3.33-1.48.09-3.39-.34-4.34.42-1.26,1.01-1.77,2.96-2.6,4.5.39.37.78.73,1.17,1.1,1.84-.65,3.69-1.3,5.95-2.69m48.76,49.83c-1.83-.21-3.92-1.06-5.4-.44-1.18.49-1.61,2.78-2.4,4.32,4.5,1.59,6.57-.13,7.8-3.88m-59.12-35.22c-2.53,1.03-4.15,2.51-2.11,6.83,2.23-1.56,4.2-2.94,6.16-4.32-1.1-.96-2.21-1.92-4.05-2.51m-14.68,39.74c2.94.6,4.7-.91,5.56-3.46.2-.59-.79-2.26-1.16-2.24-1.66.09-3.75.15-4.79,1.15-.83.8-.37,2.94.39,4.55m136.97-58.32c-4.06.11-5.8,2.09-4.77,7.34,2.88-1.64,5.42-3.1,8.58-4.9-1.9-1.09-2.59-1.48-3.81-2.44Z" style="fill: #070707; stroke-width: 0px;"/>
    <path d="m828.79,139.38c18.31-.05,36.61-.11,55.26.21.32.92.29,1.48.03,2.26-1.71,4.24-3.19,8.25-4.86,12.57-2.04,5.1-3.88,9.9-5.9,15.01-1.37,3.44-2.57,6.56-3.94,10-.7,1.71-1.22,3.09-1.9,4.7-.3.76-.43,1.3-.81,2.1.38,1.01,1.01,1.75,2.1,2.6,15.82.03,31.17-.03,46.92,0,6.27.79,6.92-3.55,8.1-7.86.7-1.76,1.14-3.3,1.85-5.07,1.09-2.74,1.92-5.25,3.02-8,1.45-3.63,2.62-7.02,4.08-10.64,2.39-6.23,4.49-12.22,6.56-18.2-.03.01-.09.05.17.42.79.11,1.31-.15,2.31-.37,16.24.08,32.01.03,47.79.2,4.51.05,7.39-1.36,8.23-6.32.5-1.08.72-1.96,1.14-3.01.19-.36.19-.54.35-1,1.16-3.13,2.15-5.98,3.41-9.02.47-1.05.68-1.9,1.13-2.96.62-1.43,1-2.66,1.57-4.19,1.2-3.07,2.2-5.83,3.45-8.81.63-1.44,1.02-2.66,1.63-4.14.77-1.74,1.31-3.23,2.13-4.95.88-1.86,1.48-3.48,2.19-5.41-1.58,0-2.53,0-3.95-.09-17.16-.15-33.87-.21-50.53-.63.64-2.12,1.25-3.89,2.04-5.96.82-2.09,1.46-3.87,2.38-5.86,4.58-11.35,8.88-22.49,13.34-33.86.29-.77.41-1.32.78-2.03-.35-.63-.95-1.1-2.01-1.66-15.81-.03-31.17.04-46.92.01-5.52-.88-7.08,2.31-7.99,6.76-.64,1.42-1,2.6-1.53,4.06-1.61,4.14-3.04,7.99-4.72,12.14-1.02,2.61-1.78,4.93-2.84,7.49-.59,1.17-.9,2.1-1.37,3.29-.52,1.44-.88,2.62-1.51,4.02-.77,1.78-1.28,3.34-2.05,5.06-.78,1.59-1.29,3.01-1.8,4.44-1.67.87-3.33,2.48-5.01,2.49-16.82.19-33.64.11-51.2.11,6.59-16.77,12.99-33.04,19.59-49.84h-48.03v-10.45h230.09c-2.92,7.76-5.66,15.33-8.61,22.82-18.82,47.72-37.72,95.4-56.49,143.14-1.4,3.57-3.3,5.24-7.32,5.23-51.82-.1-103.65-.06-155.47-.07-.81,0-1.62-.09-2.37-.13-1.77-20.91-1.35-41.29,8.02-60.5-.43-.14-.51-.09-.51-.09Z" style="fill: #020202; stroke-width: 0px;"/>
    <path d="m886.31,139.12c3.27-9.31,6.47-18.64,9.85-27.91,2.1-5.74,4.41-11.4,6.8-17.02.68-1.59,2.01-2.91,3.68-4.64,15.98-.36,31.32-.43,47.05-.41,2.01.11,3.62.12,5.34.47.08,1.03.05,1.72-.21,2.59-.33.75-.42,1.33-.76,2.11-.67,1.4-1.1,2.6-1.71,4.1-1.14,2.77-2.09,5.23-3.26,7.91-.44,1.01-.65,1.81-1.14,2.83-2.1,5.12-3.92,10.02-6.02,15.14-.79,2.06-1.3,3.9-2.1,5.94-.7,1.76-1.12,3.31-1.76,5.06-.45.93-.68,1.67-1.19,2.51-.74.51-1.2.9-1.66,1.29,0,0,.06-.04-.33-.03-1.78.08-3.18.15-5.04.13-14.15-.03-27.84.02-41.96,0-2.14-.08-3.86-.09-5.58-.09,0,0,0,0,0,0Z" style="fill: #040404; stroke-width: 0px;"/>
    <path d="m525.31,177.58c13.12,0,25.74,0,40,0-6.17,7.68-11.43,14.36-16.9,20.85-.81.96-2.67,1.47-4.05,1.47-19.48.09-38.96.06-59.34.06,2.94-7.02,5.49-13.77,8.68-20.21.66-1.33,3.67-2.04,5.63-2.09,8.49-.22,16.99-.09,25.98-.09Z" style="fill: #080808; stroke-width: 0px;"/>
    <path d="m391.31,71.99h-65.83c2.26-9.25,2.82-9.73,11.12-9.74,30.3-.02,60.59-.02,90.89-.03,1.82,0,3.63,0,5.48,0-.9,8.22-2.52,9.75-10.2,9.76-10.32.01-20.64,0-31.46,0Z" style="fill: #0e0e0e; stroke-width: 0px;"/>
    <path d="m301.44,154.26c31.89,0,63.31,0,94.81,0-1.61,8.01-2.58,8.86-9.61,8.86-32.31,0-64.62,0-96.93,0,.31-7.77,1.72-8.86,11.74-8.86Z" style="fill: #080808; stroke-width: 0px;"/>
    <path d="m828.92,139.3c-2.42-.04-4.88-.04-7.55-.04v-49.62h28.06c-4.27,10.9-8.4,21.69-12.72,32.4-2.28,5.66-4.86,11.2-7.61,17.07-.3.28-.22.23-.18.19Z" style="fill: #050505; stroke-width: 0px;"/>
    <path d="m1291.71,113.38c-2.91,3.41-5.61,7.04-8.8,10.17-2.22,2.18-5.1,3.68-8.83,6.28-.66-7.54-1.17-13.41-1.68-19.28-.28-.08-.56-.17-.83-.25-2.6,6.5-5.16,13.01-7.8,19.49-1.76,4.32-2.17,4.47-7.26,3.27,4.44-11.56,8.75-23.16,13.45-34.6.61-1.48,3.19-2.15,4.86-3.2.84,1.5,2.24,2.94,2.41,4.52.71,6.55,1.04,13.13,1.63,21.29,6.79-8.01,12.7-14.89,18.5-21.85,2.25-2.7,4.61-4.77,9.2-3.48-1.98,5.48-3.85,10.85-5.85,16.18-2.16,5.75-4.48,11.43-6.65,17.17-1.39,3.69-3.61,5.46-8.06,3.67,2.21-5.84,4.41-11.68,6.89-18.1.22-1.15.17-1.72.12-2.28-.44.33-.87.66-1.31.99Z" style="fill: #0d0d0d; stroke-width: 0px;"/>
    <path d="m557.5,155.53c8.57-.53,16.67-1.01,24.85-1.49-1.71,7.34-8.14,12.16-16.7,12.21-21.95.11-43.9.04-65.89.04.97-7.59,2.53-9.12,9.41-9.33,15.95-.47,31.9-.92,48.32-1.43Z" style="fill: #070707; stroke-width: 0px;"/>
    <path d="m1159.54,61.71c5.64-6.4,11.12-12.43,16.35-18.68,2.29-2.74,4.65-4.18,8.43-2.51-4.61,11.79-9.07,23.7-14.08,35.37-.68,1.58-4.15,1.96-7.62,3.45,3.1-8.04,5.56-14.43,8.44-21.92-8.05,4.06-9.39,14.7-19.63,14.76-.54-5.67-1.05-11.05-1.56-16.44-.26-.12-.51-.24-.77-.36-1.47,3.63-2.92,7.27-4.43,10.87-1.29,3.05-2.32,6.3-4.13,9.01-1.07,1.59-3.44,2.31-5.22,3.42-.41-.49-.82-.97-1.23-1.46,4.55-11.71,9.04-23.44,13.75-35.08.43-1.07,2.64-2.46,3.36-2.15,1.39.6,3.05,2.18,3.28,3.57,1.09,6.52,1.73,13.12,2.6,20.19,1.01-.8,1.61-1.28,2.48-2.04Z" style="fill: #0c0c0c; stroke-width: 0px;"/>
    <path d="m1338.13,133.29c1.28-4.94,2.77-9.78,4.57-14.51,2.42-6.35,4.94-12.67,7.73-18.86.83-1.85,2.73-3.22,4.13-4.81,1.57,1.87,3.88,3.5,4.55,5.65,1.91,6.09,3.14,12.39,5.64,18.8,2.73-6.8,5.58-13.55,8.13-20.42,1.4-3.78,3.52-4.88,7.54-2.95-4.77,11.93-9.43,23.75-14.32,35.48-.42,1-2.62,2.2-3.43,1.88-1.45-.57-3.15-2.04-3.55-3.47-1.76-6.22-3.08-12.56-4.57-18.86-.17-.74-.4-1.46-.98-3.6-3.26,8.22-6.15,15.17-8.76,22.23-1.18,3.2-2.87,4.76-6.69,3.44Z" style="fill: #0d0d0d; stroke-width: 0px;"/>
    <path d="m1127.1,68.88c-2.41,5.93-6.85,8.51-12.57,8.75-6.27.26-12.55.06-19.68.06,4.97-12.14,9.76-23.93,14.69-35.67.37-.89,1.74-1.95,2.63-1.94,6.27.06,12.63-.21,18.77.8,5.21.85,6.26,3.59,4.37,8.41-2.54,6.47-5.35,12.84-8.21,19.59m-7.3,1.31c2.9-6.81,5.89-13.58,8.59-20.46.43-1.1.03-3.22-.8-4-3.29-3.11-13.15-1.16-14.84,2.99-3.24,7.91-6.14,15.96-9.78,25.51,6.03-1.28,11.16-2.38,16.83-4.03Z" style="fill: #0e0e0e; stroke-width: 0px;"/>
    <path d="m1240.11,127.33c-.36-2.9-.68-5.36-1-7.78-6.95-2.16-8.42-1.45-10.8,5.13-.57,1.56-1.3,3.07-1.7,4.67-1.07,4.23-3.53,5.26-8.04,3.28,4.73-11.63,9.38-23.25,14.28-34.76.51-1.2,2.51-2.46,3.85-2.49,5.31-.14,10.65-.07,15.94.44,4.9.48,6.59,3.29,5.3,8.07-1.69,6.26-3.95,12.14-11.93,13.85.3,3.6.63,7.18.88,10.77.15,2.16,1.43,4.81-2.49,5.17-3.47.32-4.43-1.37-4.15-4.42.05-.49-.06-.99-.13-1.93m5.21-14.32c1.34-.94,3.25-1.6,3.91-2.9,1.12-2.19,1.92-4.8,1.82-7.19-.03-.72-3.44-1.49-5.37-1.89-1.93-.41-3.98-.63-5.93-.47-1.07.09-2.61.9-2.98,1.79-1.53,3.61-2.69,7.37-4.3,11.97,4.6-.43,8.33-.79,12.86-1.3Z" style="fill: #0e0e0e; stroke-width: 0px;"/>
    <path d="m1119.25,125.02c-.75,1.91-1.45,3.42-2,4.98-1.33,3.81-3.6,4.93-7.75,2.41,4.66-11.46,9.24-22.97,14.12-34.36.57-1.32,2.85-2.63,4.38-2.67,5.3-.14,10.66-.02,15.93.57,5.28.59,7.32,3.96,5.28,8.83-1.3,3.11-3.05,6.66-5.66,8.49-5.87,4.12-7.57,9.09-5.82,15.75.65,2.48.61,5.08-3.02,4.49-1.29-.21-3.1-1.73-3.37-2.94-.77-3.54-.88-7.23-1.25-10.85-7.55-1.86-7.9-1.69-10.85,5.3m11.24-24.72c-2.49,4.2-4.98,8.39-7.89,13.31,4.45,0,7.43.12,10.4-.03,4.65-.23,7.65-2.95,9.37-7.04,1.23-2.94.53-5.25-3.12-5.64-2.63-.28-5.28-.42-8.75-.61Z" style="fill: #0e0e0e; stroke-width: 0px;"/>
    <path d="m1283.46,161.28c5.23-11.77,3.05-10.53,15.16-10.2,2.16.06,4.32.01,6.48.14,6.96.41,8.78,3.03,6.84,9.77-1.91,6.67-4.71,9.74-11.8,12.76.43,4.78.87,9.68,1.35,15h-6.45c-.54-4.67-1.07-9.25-1.59-13.74-7.14-2.09-8.3-1.56-10.64,4.7-.64,1.7-1.3,3.4-1.84,5.13-1.23,3.91-3.61,5.35-7.98,3.48,3.45-8.9,6.9-17.79,10.47-27.04m3.91,6.91c4.73-.27,9.6.06,14.11-1.08,1.81-.46,3.39-4,3.93-6.39.28-1.26-1.63-4.11-3.02-4.47-8.64-2.25-10.39-1.13-13.45,7.37-.45,1.25-.93,2.48-1.58,4.57Z" style="fill: #0d0d0d; stroke-width: 0px;"/>
    <path d="m1179.98,159.08c-1.85,3.46-.84,5.28,2.48,6.24,2.06.59,4.01,1.57,6.02,2.35,5.99,2.34,6.94,4.27,5,10.21-3.31,10.12-18.33,15.85-27.27,9.89-1.68-1.12-2.09-5.18-1.9-7.8.29-4.13,3.72-3.9,6.8-3.58.17.36.48.7.42.94-1.03,4.06-1.03,7.16,4.63,7.21,5.82.04,11.31-3.49,10.81-7.85-.14-1.28-1.68-2.78-2.97-3.46-2.47-1.32-5.18-2.22-7.84-3.15-3.88-1.35-4.91-3.95-4.07-7.84,2.13-9.94,19.04-16.21,26.97-9.88.72.58,1.32,1.52,1.59,2.42,1.53,5.03-1.58,8.54-6.12,7.98-1.27-2.64-1.89-6.34-3.54-6.88-3.71-1.21-7.94-.86-11.02,3.2Z" style="fill: #0f0f0f; stroke-width: 0px;"/>
    <path d="m1261.51,150.26c13.66.06,15.47,2.59,10.79,14.61-1.99,5.1-4.16,10.13-6.04,15.26-3.9,10.61-21.56,11.61-27.62,7.01-1.42-1.08-2.27-4.59-1.65-6.37,2.52-7.18,5.6-14.18,8.7-21.15,2.93-6.57,8.83-8.57,15.82-9.35m-10.61,12.05c-2.29,5.51-4.76,10.95-6.74,16.57-.49,1.38.06,4.2,1.09,4.84,4.65,2.93,13,0,15.14-5.07,2.31-5.49,4.59-11,6.58-16.62,1.71-4.83,0-7.04-5.06-6.88-4.71.15-8.89,1.41-11.01,7.16Z" style="fill: #0e0e0e; stroke-width: 0px;"/>
    <path d="m1377,184.26c2.53-.88,5.08-1.24,6.65-2.67,4.03-3.7,3.29-6.7-1.74-8.87-1.82-.78-3.66-1.52-5.51-2.25-5.62-2.23-6.8-4.84-4.69-10.38,3.2-8.4,18.91-13.23,25.97-7.64,1.52,1.2,2.44,4.35,2.13,6.38-.56,3.72-3.7,4.64-7.25,4.22-1-2.54,2.35-6.91-3.06-7.46-4.05-.41-8.11-.5-10.57,3.66-1.54,2.61-1.24,4.72,1.98,5.86,2.5.89,4.95,1.92,7.41,2.92,5.08,2.07,5.99,3.99,4.44,9.28-3.03,10.34-17.72,16.3-26.93,10.55-1.72-1.07-3.02-4.34-2.91-6.51.22-4.2,3.35-5.76,7.44-5.29q-.13,8.12,6.64,8.2Z" style="fill: #0e0e0e; stroke-width: 0px;"/>
    <path d="m1227.51,182.24c-6.46,6.93-13.89,9.53-22.8,6.81-3.65-1.11-5.63-3.71-5.04-7.53.66-4.25,3.69-5.44,7.64-5.12-.13,7.76,2.08,9.82,9.5,7.45,2.56-.82,4.55-4.25,6.04-6.92.28-.5-2.94-3.09-4.68-4.55-.73-.61-1.82-.78-2.74-1.17-9.65-4.01-10.48-8.9-2.61-16.02,5.66-5.12,12.29-6.27,19.54-4.25,3.83,1.07,5.22,3.34,4.4,7.48-.89,4.51-3.31,5.25-7.44,4.09.37-1.63.71-3.18,1.06-4.7-3.65-2.9-9.49-3.21-12.74-.34-1.24,1.1-2.49,3.13-2.33,4.57.13,1.19,2.25,2.31,3.66,3.17,1.26.76,2.77,1.1,4.14,1.68,8.84,3.71,9.83,6.95,4.38,15.34Z" style="fill: #101010; stroke-width: 0px;"/>
    <path d="m1219.47,105.08c-2.18,5.82-4.05,11.33-6.32,16.67-4.28,10.08-11.25,13.81-22.18,12.19-8.64-1.28-9.81-3.28-6.65-11.5,2.2-5.73,4.77-11.33,6.6-17.17,1.77-5.61,5.38-8.77,10.93-9.52,4.07-.55,8.31-.9,12.35-.38,6.18.79,7.33,3.24,5.27,9.71m-15.01,20.65c2.47-5.78,5.14-11.49,7.29-17.39.82-2.25,1.38-6.57.43-7.11-2.25-1.28-5.62-1.56-8.24-.95-2.32.54-5.15,2.39-6.14,4.44-3.01,6.23-5.29,12.83-7.76,19.32-1.06,2.78.06,5.08,2.95,4.85,3.74-.29,7.4-1.63,11.47-3.16Z" style="fill: #0c0c0c; stroke-width: 0px;"/>
    <path d="m1380.31,132.3c-.69-2.31-1.82-4.68-1.21-6.48,2.54-7.53,5.62-14.88,8.47-22.31,1.94-5.05,5.86-7.62,10.96-8.13,3.78-.38,7.65-.2,11.44.13,3.94.34,6.04,2.64,5.28,6.78-.69,3.75-2.06,6.82-6.89,5.41-.17-.3-.4-.56-.47-.86-.5-2.15-.25-5.35-1.58-6.27-3.02-2.09-10.05-.33-11.63,2.98-3.34,7-6.06,14.31-8.76,21.59-.28.75.98,2.73,1.97,3.19,4.57,2.14,11.06-.16,12.97-4.92,1.46-3.63,3.52-3.83,6.53-2.69-.24,6.86-3.79,11.6-10.48,12.28-5.34.55-10.83-.29-16.61-.7Z" style="fill: #0f0f0f; stroke-width: 0px;"/>
    <path d="m1088.84,101.55c.9-5.17,3.49-6.96,8.49-6.44,5.43.56,10.96.25,16.44.32.14,0,.29.13.49.23.49,3.16-.92,4.66-4.09,4.64-1.66,0-3.33,0-4.99,0q-10.16,0-13.22,10.78h15.33c.09,3.74-1.63,5.18-4.9,5.06-1.16-.04-2.33,0-3.5,0-10.09.01-11.7,1.46-13.47,12.46h16.32l.86,1.43c-1.5,1.21-2.94,3.37-4.5,3.46-7.11.37-14.25.16-22.2.16,4.44-11.04,8.6-21.4,12.94-32.11Z" style="fill: #101010; stroke-width: 0px;"/>
    <path d="m1064.25,170.02c1.47-3.76,3.02-7.09,4.17-10.55,1.75-5.28,5.61-7.72,10.79-8.2,3.8-.35,7.66-.36,11.48-.2,4.97.21,6.54,2.02,6.11,6.38-.43,4.4-2.2,6.93-7.46,5.19-.53-2.51,1.65-6.53-3.33-7.26-4.55-.66-9.62,1.45-11.33,5.47-2.53,5.96-4.83,12.02-7.17,18.05-1.23,3.16-.48,5.05,3.28,5.41,4.5.43,8.53-.31,10.59-4.69,1.73-3.67,4.15-4.33,7.61-3.1-1.39,7.71-4.81,11.23-12.3,12.06-3.95.44-7.99.62-11.96.34-4.36-.3-6.02-3.09-4.68-7.29,1.21-3.79,2.72-7.49,4.21-11.61Z" style="fill: #0d0d0d; stroke-width: 0px;"/>
    <path d="m1450.11,96.99c-1.32,1.4-2.49,2.83-3.93,3.2-1.87.48-3.97.12-5.97.12-9.31,0-10.08.65-12,10.6h14.38c.4,3.8-.81,5.48-4.3,5.24-.99-.07-2-.01-3-.01-10.72,0-11.6.74-14.15,12.38,2.84,0,5.55,0,8.26,0s5.62,0,8.43,0c.29.36.58.71.88,1.07-1.29,1.33-2.53,3.75-3.89,3.82-7.39.38-14.82.18-22.84.18,4.99-12.4,9.55-23.93,14.33-35.36.53-1.27,2.34-2.8,3.6-2.85,6.48-.23,12.97-.03,19.45.09.26,0,.51.71.73,1.52Z" style="fill: #121212; stroke-width: 0px;"/>
    <path d="m1122.87,182.36c-3.71,6.24-9.62,6.63-15.49,6.75-13.14.26-14.22-1.27-9.67-13.55,1.95-5.27,4.23-10.43,6.31-15.66,2.3-5.79,6.88-8.33,12.75-8.83,2.97-.25,5.99-.19,8.98-.05,3.64.17,6.66,1.25,6.43,5.78-.25,5.12-1.72,6.42-7.49,6.26,0-2.93,1.74-6.87-3.2-7.71-4.5-.77-9.5,1.52-11.22,5.62-2.57,6.11-4.81,12.35-7.3,18.5-1.23,3.04-.06,4.33,2.9,4.74,4.86.67,9.11-.27,11.36-5.06,1.56-3.33,3.92-3.57,7.38-2.69-.52,1.89-1.03,3.73-1.74,5.91Z" style="fill: #0f0f0f; stroke-width: 0px;"/>
    <path d="m1151.01,184.09c1.4.53,2.33,1.07,3.27,1.6-1.37,1.15-2.69,3.22-4.11,3.3-6.79.35-13.61.16-21.15.16,1.6-4.64,2.91-8.97,4.58-13.15,2.82-7.08,5.93-14.05,8.79-21.12,1.14-2.81,2.85-4.12,6.01-4.02,6.12.19,12.25.06,18.53.06.26,3.56-1.3,4.98-4.26,5.07-1.99.06-3.99,0-5.99,0-9.33,0-10.01.59-11.62,10.61h14.27c.3.54.59,1.08.89,1.61-1.48,1.14-2.87,2.45-4.49,3.35-.76.43-1.95.1-2.95.11q-11.64.03-15.03,12.42c4.37,0,8.58,0,13.26,0Z" style="fill: #0f0f0f; stroke-width: 0px;"/>
    <path d="m1337.09,164.83q5.33-13.91,19.77-13.91c2.81,0,5.62,0,8.47,0,1.14,3.88-.51,5.14-3.86,5.07-1.83-.04-3.66,0-5.5,0q-10.1,0-11.98,10.94c2.51,0,4.95,0,7.39,0,2.31,0,4.61,0,6.92,0,.28.54.56,1.07.84,1.61-1.53,1.04-2.95,2.68-4.62,2.98-2.74.5-5.66.4-8.46.09-4.07-.45-6.2,1.09-6.98,5.12-.46,2.37-1.54,4.62-2.5,7.38h16.5c.5,3.48-.98,4.99-4.06,5.01-6.82.04-13.63.01-21.26.01,3.18-8.3,6.18-16.12,9.33-24.3Z" style="fill: #0c0c0c; stroke-width: 0px;"/>
    <path d="m1330.75,128.39c-.09,4.78-1.66,6.83-6.53,4.42v-8.34c-7.34-1.33-13.57-1.23-17.8,6.09-1.06,1.84-4.11,2.54-6.25,3.77-.37-.49-.73-.98-1.1-1.47.64-1.03,1.22-2.1,1.93-3.07,7.53-10.36,15.18-20.63,22.57-31.09,2.26-3.2,4.76-4.34,9.05-2.88-.59,10.65-1.19,21.39-1.86,32.56m-11.31-15.64c-1.34,1.97-2.69,3.94-4.1,6.02h9.69c.24-4.66.47-8.97.77-14.78-2.55,3.52-4.24,5.85-6.35,8.77Z" style="fill: #0e0e0e; stroke-width: 0px;"/>
    <path d="m1046.46,132.11c-2.11.67-4.05,1.01-6.87,1.51,5.02-12.44,9.49-23.83,14.31-35.06.61-1.41,3.06-2.76,4.73-2.84,5.13-.26,10.32-.15,15.44.31,4.77.43,6.3,2.99,5.23,7.6-2.59,11.22-7.15,15.03-18.63,15.58q-9.42.45-12.68,9.37c-.4,1.09-.9,2.14-1.53,3.53m12.56-31.22c-1.87,4.27-3.73,8.54-5.67,12.97,11.09,2.07,16.09.02,19.21-7.01,1.74-3.92,1.02-5.99-3.53-6.11-3.12-.08-6.24-.24-10.01.15Z" style="fill: #0f0f0f; stroke-width: 0px;"/>
    <path d="m1074.2,46.97c1.32-5.64,4.62-7.53,9.95-7.15,5.27.37,10.59.08,16.19.08-.59,3.81-2.66,4.95-5.6,4.98-1.32.01-2.65-.16-3.98-.16q-10.06.03-13.3,10.64h14.42c.86,3.58-.45,5.07-3.64,5.11-.33,0-.66-.05-1-.06q-12.32-.12-16.97,12.43h16.89c.78,4.12-1.21,5.13-4.32,5.14-6.66,0-13.32,0-21.05,0,4.24-10.55,8.27-20.6,12.41-31.01Z" style="fill: #101010; stroke-width: 0px;"/>
    <path d="m1053.3,152.39c-.86,12.19-1.74,23.93-2.64,35.95h-5.5v-8.68c-7.91-1.44-14.51-1.22-18.5,6.91-.8,1.63-4.1,2.04-6.25,3.01l-.85-1.41c5.57-7.56,11.15-15.11,16.71-22.68,2.75-3.74,5.58-7.44,8.21-11.27,2.33-3.39,5.13-4.34,8.82-1.83m-7.67,7.74c-3.48,4.76-6.97,9.53-10.95,14.98,2.95,0,5.2.49,7.08-.15,1.67-.57,3.91-2.2,4.16-3.67.63-3.67.28-7.51.68-11.05.05-.23.1-.46.15-.69-.14.19-.28.38-1.11.57Z" style="fill: #0f0f0f; stroke-width: 0px;"/>
    <path d="m1165.36,104.3c-.81,2.38-1.51,4.38-2.34,6.75h16.15c.64,3.81-.93,5.87-4.39,5.17-11.49-2.34-17.41,2.69-20.01,13.58-.98,4.12-1.65,3.96-6.94,3.14,1.88-5.18,3.68-10.26,5.58-15.3,2.28-6.05,4.39-12.18,7.1-18.03.88-1.89,3.33-4.15,5.21-4.28,6.93-.51,13.92-.2,21.12-.2.23,3.4-.68,5.2-3.94,5.19-3.66-.02-7.39-.43-10.96.15-2.28.38-4.32,2.25-6.58,3.84Z" style="fill: #0c0c0c; stroke-width: 0px;"/>
    <path d="m1314.99,189.12c-1.7.02-3,.02-4.94.02,4.89-12.17,9.6-23.81,14.22-35.48,1.45-3.67,4.16-2.98,7.57-2.33-1.64,4.47-3.11,8.8-4.81,13.03-2.78,6.9-5.65,13.78-8.64,20.59-.67,1.52-1.98,2.76-3.4,4.16Z" style="fill: #0c0c0c; stroke-width: 0px;"/>
    <path d="m815.42,214.58c1.72-4.89,4.94-7.44,9.69-7.84,4.2-.36,8.03.63,10.18,4.63,1.95,3.63,1.92,7.46-.72,10.75-2.73,3.4-6.6,4.35-10.75,3.47-5.35-1.13-8.25-4.93-8.4-11.01m3.11.4c-.32,4.24,1.44,7.15,5.66,8.07,3.7.8,7.58.12,8.84-3.66.78-2.34.15-6.06-1.34-8.02-2.28-3-6.21-3.11-9.53-1.18-1.45.84-2.32,2.66-3.63,4.79Z" style="fill: #1e1e1e; stroke-width: 0px;"/>
    <path d="m672.56,28.81c3.76-.26,7.2-.26,11.72-.26-3.69,4.58-6.84,8.49-10.87,13.49-.46-5.08-.81-9.02-.85-13.22Z" style="fill: #1e1e1e; stroke-width: 0px;"/>
    <path d="m554.32,62.25h9.88c.78,7.86-2.51,11.71-9.69,11.71-5.97,0-11.94,0-17.92,0,.48-9.22,2.85-11.62,11.26-11.71,1.99-.02,3.99,0,6.47,0Z" style="fill: #0c0c0c; stroke-width: 0px;"/>
    <path d="m825.58,218.96c-.68.88-1.15,1.47-2.28,2.88v-9.96c7.15-1.23,7.94-.03,5.62,8.59-1.04-.6-2.08-1.2-3.35-1.52Z" style="fill: #121212; stroke-width: 0px;"/>
  </g>
</svg>