<?xml version="1.0" encoding="UTF-8" standalone="no"?><!DOCTYPE svg PUBLIC "-//W3C//DTD SVG 1.1//EN" "http://www.w3.org/Graphics/SVG/1.1/DTD/svg11.dtd"><svg width="100%" height="100%" viewBox="0 0 1200 1200" version="1.1" xmlns="http://www.w3.org/2000/svg" xmlns:xlink="http://www.w3.org/1999/xlink" xml:space="preserve" xmlns:serif="http://www.serif.com/" style="fill-rule:evenodd;clip-rule:evenodd;stroke-linecap:round;stroke-linejoin:round;stroke-miterlimit:1.5;"><path d="M77.065,514.334l102.168,-90.337c75.871,-56.097 115.445,-4.688 140.883,55.923c3.707,121.598 -24.491,164.683 -59.864,197.77l-110.986,102.382l-72.201,-265.738Z" style="fill:#4d4d4d;stroke:#000;stroke-width:20.83px;"/><path d="M77.065,514.222l-57.712,-16.346l74.851,270.151l54.202,12.045l-71.341,-265.85Z" style="fill:#404040;stroke:#000;stroke-width:20.83px;"/><path d="M264.554,464.322l471.343,124.644c-51.298,16.602 -57.758,44.197 -65.255,103.35c-1.081,8.523 -1.609,16.23 -2.076,23.15c-2.594,38.472 14.649,51.932 39.931,54.282l-485.991,-120.343c-64.162,-59.429 -38.325,-151.529 42.048,-185.083Z" style="fill:#1a1a1a;stroke:#000;stroke-width:20.83px;"/><path d="M19.353,497.876l102.898,-89.994c39.032,-28.821 86.14,-17.728 123.891,-8.002c-35.57,-8.58 -102.293,51.611 -169.077,111.937l-57.712,-13.941Z" style="fill:#404040;stroke:#000;stroke-width:20.83px;"/><path d="M483.699,316.505c-15.149,68.196 11.519,112.6 69.598,139.131c0,0 141.45,49.763 199.355,60.71c48.526,9.173 148.074,4.971 148.074,4.971l105.191,-70.707c-0,0 -9.156,-35.261 -23.082,-34.843c-36.495,1.098 -129.235,44.774 -195.893,41.428c-68.944,-3.461 -167.228,-38.746 -217.769,-62.194c-35.09,-16.28 -85.474,-78.496 -85.474,-78.496Z" style="fill:#fdc500;stroke:#000;stroke-width:20.83px;"/><path d="M1132.75,577.159l0.821,54.968l-88.189,-22.646c-30.807,-3.5 -55.114,9.218 -73.734,30.806l-125.385,153.022l39.531,-129.033l135.851,-141.272l111.105,54.155Z" style="fill:#003f88;stroke:#000;stroke-width:20.83px;"/><path d="M1165.08,575.95l-127.771,-132.874l-165.647,94.944c22.468,27.074 22.144,53.288 13.635,79.015l-21.211,38.15l18.686,9.091l79.794,-86.864c29.775,-29.733 60.96,-41.139 93.429,-35.857l109.085,34.395Z" style="fill:#002755;stroke:#000;stroke-width:20.83px;"/><path d="M1160.38,572.505c12.155,6.887 14.787,25.249 5.875,40.981c-8.913,15.731 -26.017,22.912 -38.172,16.026c-12.155,-6.886 -14.787,-25.249 -5.875,-40.98c8.913,-15.732 26.017,-22.913 38.172,-16.027Z" style="fill:#002755;stroke:#000;stroke-width:20.83px;"/><path d="M860.448,651.539c15.606,3.382 21.921,35.446 14.093,71.557c-7.827,36.111 -26.852,62.682 -42.458,59.299c-15.606,-3.383 -21.92,-35.447 -14.093,-71.557c7.828,-36.111 26.852,-62.682 42.458,-59.299Z" style="fill:#b3b3b3;stroke:#000;stroke-width:20.83px;"/><path d="M864.081,651.248l20.706,-34.213c40.541,-68.438 -88.012,-145.87 -139.386,-47.145l-9.504,21.41l-17.767,40.827c-37.809,78.69 -21.761,107.194 -0,130.376l118.175,30.806c-32.827,-31.675 -31.484,-129.033 27.776,-142.061Z" style="fill:#002755;stroke:#000;stroke-width:20.83px;"/><path d="M798.978,574.047c5.332,-4.909 12.725,-5.565 16.502,-1.464c3.776,4.101 2.513,11.416 -2.818,16.325c-5.331,4.909 -12.725,5.565 -16.501,1.464c-3.776,-4.101 -2.514,-11.416 2.817,-16.325Z" style="fill:#737373;stroke:#000;stroke-width:20.83px;"/></svg>