<?xml version="1.0" encoding="UTF-8" standalone="no"?><!DOCTYPE svg PUBLIC "-//W3C//DTD SVG 1.1//EN" "http://www.w3.org/Graphics/SVG/1.1/DTD/svg11.dtd"><svg width="100%" height="100%" viewBox="0 0 1200 1200" version="1.1" xmlns="http://www.w3.org/2000/svg" xmlns:xlink="http://www.w3.org/1999/xlink" xml:space="preserve" xmlns:serif="http://www.serif.com/" style="fill-rule:evenodd;clip-rule:evenodd;stroke-linecap:round;stroke-linejoin:round;stroke-miterlimit:1.5;"><path d="M1124.78,917.899c0,-14.838 -12.047,-26.886 -26.886,-26.886l-305.829,0c-14.839,0 -26.886,12.048 -26.886,26.886l-0,53.773c-0,14.838 12.047,26.886 26.886,26.886l305.829,-0c14.839,-0 26.886,-12.048 26.886,-26.886l0,-53.773Z" style="fill:#ebebeb;stroke:#000;stroke-width:18.75px;"/><circle cx="944.982" cy="944.785" r="34.028"/><path d="M965.931,965.841c11.708,-11.708 11.708,-30.719 -0,-42.426l-344.715,-344.715c-11.707,-11.708 -30.718,-11.708 -42.426,0c-11.708,11.708 -11.708,30.719 -0,42.426l344.715,344.715c11.707,11.708 30.718,11.708 42.426,-0Z" style="fill:#003c89;stroke:#000;stroke-width:16.67px;"/><path d="M600,280.256c-21.263,15.391 -30.491,36.136 -27.685,62.235c-6.129,0.659 -12.233,1.537 -18.3,2.631c-4.661,-25.832 -19.36,-43.137 -44.097,-51.915c-16.065,20.759 -19.075,43.264 -9.03,67.515c-5.696,2.359 -11.305,4.92 -16.818,7.68c-11.749,-23.473 -30.728,-35.935 -56.937,-37.388c-9.566,24.444 -6.113,46.885 10.357,67.323c-4.8,3.868 -9.461,7.907 -13.972,12.107c-17.887,-19.211 -39.608,-25.822 -65.165,-19.832c-2.291,26.149 7.343,46.708 28.905,61.678c-3.516,5.064 -6.85,10.252 -9.996,15.554c-22.574,-13.394 -45.278,-13.618 -68.112,-0.671c5.168,25.735 20.205,42.748 45.111,51.037c-1.947,5.849 -3.684,11.766 -5.209,17.739c-25.434,-6.491 -47.281,-0.309 -65.542,18.547c12.209,23.236 31.43,35.323 57.662,36.26c-0.22,6.161 -0.22,12.327 0,18.488c-26.232,0.937 -45.453,13.024 -57.662,36.26c18.261,18.856 40.108,25.038 65.542,18.547c1.525,5.973 3.262,11.89 5.209,17.739c-24.906,8.289 -39.943,25.302 -45.111,51.037c22.834,12.947 45.538,12.723 68.112,-0.671c3.146,5.302 6.48,10.49 9.996,15.554c-21.562,14.97 -31.196,35.529 -28.905,61.678c25.557,5.99 47.278,-0.621 65.165,-19.832c4.511,4.2 9.172,8.239 13.972,12.107c-16.47,20.438 -19.923,42.879 -10.357,67.323c26.209,-1.453 45.188,-13.915 56.937,-37.388c5.513,2.76 11.122,5.321 16.818,7.68c-10.045,24.251 -7.035,46.756 9.03,67.515c24.737,-8.778 39.436,-26.083 44.097,-51.915c6.067,1.094 12.171,1.972 18.3,2.631c-2.806,26.099 6.422,46.844 27.685,62.235c21.263,-15.391 30.491,-36.136 27.685,-62.235c6.129,-0.659 12.233,-1.537 18.3,-2.631c4.661,25.832 19.36,43.137 44.097,51.915c16.065,-20.759 19.075,-43.264 9.03,-67.515c5.696,-2.359 11.305,-4.92 16.818,-7.68c11.749,23.473 30.728,35.935 56.937,37.388c9.566,-24.444 6.113,-46.885 -10.357,-67.323c4.8,-3.868 9.461,-7.907 13.972,-12.107c17.887,19.211 39.608,25.822 65.165,19.832c2.291,-26.149 -7.343,-46.708 -28.905,-61.678c3.516,-5.064 6.85,-10.252 9.996,-15.554c22.574,13.394 45.278,13.618 68.112,0.671c-5.168,-25.735 -20.205,-42.748 -45.111,-51.037c1.947,-5.849 3.684,-11.766 5.209,-17.739c25.434,6.491 47.281,0.309 65.542,-18.547c-12.209,-23.236 -31.43,-35.323 -57.662,-36.26c0.22,-6.161 0.22,-12.327 -0,-18.488c26.232,-0.937 45.453,-13.024 57.662,-36.26c-18.261,-18.856 -40.108,-25.038 -65.542,-18.547c-1.525,-5.973 -3.262,-11.89 -5.209,-17.739c24.906,-8.289 39.943,-25.302 45.111,-51.037c-22.834,-12.947 -45.538,-12.723 -68.112,0.671c-3.146,-5.302 -6.48,-10.49 -9.996,-15.554c21.562,-14.97 31.196,-35.529 28.905,-61.678c-25.557,-5.99 -47.278,0.621 -65.165,19.832c-4.511,-4.2 -9.172,-8.239 -13.972,-12.107c16.47,-20.438 19.923,-42.879 10.357,-67.323c-26.209,1.453 -45.188,13.915 -56.937,37.388c-5.513,-2.76 -11.122,-5.321 -16.818,-7.68c10.045,-24.251 7.035,-46.756 -9.03,-67.515c-24.737,8.778 -39.436,26.083 -44.097,51.915c-6.067,-1.094 -12.171,-1.972 -18.3,-2.631c2.806,-26.099 -6.422,-46.844 -27.685,-62.235Z" style="fill:#ffc700;stroke:#000;stroke-width:10.42px;"/><clipPath id="_clip1"><path d="M809.392,358.357l-418.784,483.286l241.643,209.392l418.784,-483.286l-241.643,-209.392Z"/></clipPath><g clip-path="url(#_clip1)"><path d="M358.357,390.608c-2.293,26.149 7.342,46.708 28.903,61.679c-3.516,5.064 -6.85,10.251 -9.996,15.553c-22.574,-13.394 -45.278,-13.618 -68.112,-0.671c5.168,25.735 20.205,42.747 45.11,51.037c-1.947,5.849 -3.684,11.766 -5.209,17.739c-25.433,-6.492 -47.281,-0.31 -65.542,18.546c12.209,23.236 31.429,35.324 57.661,36.261c-0.22,6.161 -0.22,12.327 -0,18.488c-26.232,0.936 -45.453,13.023 -57.663,36.259c18.261,18.856 40.108,25.039 65.542,18.548c1.524,5.973 3.262,11.89 5.208,17.739c-24.905,8.289 -39.942,25.301 -45.111,51.036c22.834,12.948 45.538,12.725 68.112,-0.669c3.146,5.302 6.48,10.489 9.995,15.553c-21.561,14.97 -31.196,35.53 -28.905,61.678c25.556,5.99 47.278,-0.62 65.165,-19.831c4.511,4.201 9.172,8.239 13.972,12.107c-16.471,20.438 -19.924,42.879 -10.358,67.323c26.209,-1.452 45.188,-13.915 56.938,-37.387c5.512,2.76 11.121,5.322 16.817,7.681c-10.046,24.25 -7.036,46.755 9.029,67.514c24.738,-8.777 39.437,-26.082 44.098,-51.914c6.067,1.095 12.17,1.973 18.3,2.632c-2.806,26.098 6.422,46.843 27.684,62.235c21.263,-15.391 30.491,-36.136 27.686,-62.235c6.129,-0.658 12.233,-1.536 18.3,-2.63c4.66,25.832 19.359,43.137 44.097,51.915c16.065,-20.758 19.075,-43.263 9.031,-67.514c5.695,-2.359 11.304,-4.921 16.817,-7.68c11.749,23.473 30.728,35.936 56.937,37.389c9.566,-24.444 6.114,-46.885 -10.356,-67.324c4.8,-3.868 9.461,-7.906 13.972,-12.107c17.887,19.212 39.608,25.823 65.164,19.834c2.293,-26.149 -7.342,-46.708 -28.903,-61.679c3.516,-5.064 6.85,-10.251 9.996,-15.553c22.574,13.394 45.278,13.618 68.112,0.671c-5.168,-25.735 -20.205,-42.747 -45.11,-51.037c1.947,-5.849 3.684,-11.766 5.209,-17.739c25.433,6.492 47.281,0.31 65.542,-18.546c-12.209,-23.236 -31.429,-35.324 -57.661,-36.261c0.22,-6.161 0.22,-12.327 0,-18.488c26.232,-0.936 45.453,-13.023 57.663,-36.259c-18.261,-18.856 -40.108,-25.039 -65.542,-18.548c-1.524,-5.973 -3.262,-11.89 -5.208,-17.739c24.905,-8.289 39.942,-25.301 45.111,-51.036c-22.834,-12.948 -45.538,-12.725 -68.112,0.669c-3.146,-5.302 -6.48,-10.489 -9.995,-15.553c21.561,-14.97 31.196,-35.53 28.905,-61.678c-25.556,-5.99 -47.278,0.62 -65.165,19.831c-4.511,-4.201 -9.172,-8.239 -13.972,-12.107c16.471,-20.438 19.924,-42.879 10.358,-67.323c-26.209,1.452 -45.188,13.915 -56.938,37.387c-5.512,-2.76 -11.121,-5.322 -16.817,-7.681c10.046,-24.25 7.036,-46.755 -9.029,-67.514c-24.738,8.777 -39.437,26.082 -44.098,51.914c-6.067,-1.095 -12.17,-1.973 -18.3,-2.632c2.806,-26.098 -6.422,-46.843 -27.684,-62.235c-21.263,15.391 -30.491,36.136 -27.686,62.235c-6.129,0.658 -12.233,1.536 -18.3,2.63c-4.66,-25.832 -19.359,-43.137 -44.097,-51.915c-16.065,20.758 -19.075,43.263 -9.031,67.514c-5.695,2.359 -11.304,4.921 -16.817,7.68c-11.749,-23.473 -30.728,-35.936 -56.937,-37.389c-9.566,24.444 -6.114,46.885 10.356,67.324c-4.8,3.868 -9.461,7.906 -13.972,12.107c-17.887,-19.212 -39.608,-25.823 -65.164,-19.834Z" style="fill:#ffae23;fill-opacity:0.8;"/></g><circle cx="600" cy="600" r="125.24" style="fill:#003c89;stroke:#000;stroke-width:20.83px;"/><path d="M600,280.256c-21.263,15.391 -30.491,36.136 -27.685,62.235c-6.129,0.659 -12.233,1.537 -18.3,2.631c-4.661,-25.832 -19.36,-43.137 -44.097,-51.915c-16.065,20.759 -19.075,43.264 -9.03,67.515c-5.696,2.359 -11.305,4.92 -16.818,7.68c-11.749,-23.473 -30.728,-35.935 -56.937,-37.388c-9.566,24.444 -6.113,46.885 10.357,67.323c-4.8,3.868 -9.461,7.907 -13.972,12.107c-17.887,-19.211 -39.608,-25.822 -65.165,-19.832c-2.291,26.149 7.343,46.708 28.905,61.678c-3.516,5.064 -6.85,10.252 -9.996,15.554c-22.574,-13.394 -45.278,-13.618 -68.112,-0.671c5.168,25.735 20.205,42.748 45.111,51.037c-1.947,5.849 -3.684,11.766 -5.209,17.739c-25.434,-6.491 -47.281,-0.309 -65.542,18.547c12.209,23.236 31.43,35.323 57.662,36.26c-0.22,6.161 -0.22,12.327 0,18.488c-26.232,0.937 -45.453,13.024 -57.662,36.26c18.261,18.856 40.108,25.038 65.542,18.547c1.525,5.973 3.262,11.89 5.209,17.739c-24.906,8.289 -39.943,25.302 -45.111,51.037c22.834,12.947 45.538,12.723 68.112,-0.671c3.146,5.302 6.48,10.49 9.996,15.554c-21.562,14.97 -31.196,35.529 -28.905,61.678c25.557,5.99 47.278,-0.621 65.165,-19.832c4.511,4.2 9.172,8.239 13.972,12.107c-16.47,20.438 -19.923,42.879 -10.357,67.323c26.209,-1.453 45.188,-13.915 56.937,-37.388c5.513,2.76 11.122,5.321 16.818,7.68c-10.045,24.251 -7.035,46.756 9.03,67.515c24.737,-8.778 39.436,-26.083 44.097,-51.915c6.067,1.094 12.171,1.972 18.3,2.631c-2.806,26.099 6.422,46.844 27.685,62.235c21.263,-15.391 30.491,-36.136 27.685,-62.235c6.129,-0.659 12.233,-1.537 18.3,-2.631c4.661,25.832 19.36,43.137 44.097,51.915c16.065,-20.759 19.075,-43.264 9.03,-67.515c5.696,-2.359 11.305,-4.92 16.818,-7.68c11.749,23.473 30.728,35.935 56.937,37.388c9.566,-24.444 6.113,-46.885 -10.357,-67.323c4.8,-3.868 9.461,-7.907 13.972,-12.107c17.887,19.211 39.608,25.822 65.165,19.832c2.291,-26.149 -7.343,-46.708 -28.905,-61.678c3.516,-5.064 6.85,-10.252 9.996,-15.554c22.574,13.394 45.278,13.618 68.112,0.671c-5.168,-25.735 -20.205,-42.748 -45.111,-51.037c1.947,-5.849 3.684,-11.766 5.209,-17.739c25.434,6.491 47.281,0.309 65.542,-18.547c-12.209,-23.236 -31.43,-35.323 -57.662,-36.26c0.22,-6.161 0.22,-12.327 -0,-18.488c26.232,-0.937 45.453,-13.024 57.662,-36.26c-18.261,-18.856 -40.108,-25.038 -65.542,-18.547c-1.525,-5.973 -3.262,-11.89 -5.209,-17.739c24.906,-8.289 39.943,-25.302 45.111,-51.037c-22.834,-12.947 -45.538,-12.723 -68.112,0.671c-3.146,-5.302 -6.48,-10.49 -9.996,-15.554c21.562,-14.97 31.196,-35.529 28.905,-61.678c-25.557,-5.99 -47.278,0.621 -65.165,19.832c-4.511,-4.2 -9.172,-8.239 -13.972,-12.107c16.47,-20.438 19.923,-42.879 10.357,-67.323c-26.209,1.453 -45.188,13.915 -56.937,37.388c-5.513,-2.76 -11.122,-5.321 -16.818,-7.68c10.045,-24.251 7.035,-46.756 -9.03,-67.515c-24.737,8.778 -39.436,26.083 -44.097,51.915c-6.067,-1.094 -12.171,-1.972 -18.3,-2.631c2.806,-26.099 -6.422,-46.844 -27.685,-62.235Z" style="fill:none;stroke:#000;stroke-width:18.75px;"/><path d="M621.21,621.21c11.708,-11.708 11.708,-30.719 0,-42.426l-344.715,-344.715c-11.707,-11.708 -30.718,-11.708 -42.426,0c-11.708,11.708 -11.708,30.719 0,42.426l344.715,344.715c11.707,11.708 30.718,11.708 42.426,-0Z" style="fill:#003c89;stroke:#000;stroke-width:16.67px;"/><path d="M432.854,219.342c0,-14.839 -12.047,-26.886 -26.886,-26.886l-305.829,-0c-14.839,-0 -26.886,12.047 -26.886,26.886l-0,53.772c-0,14.839 12.047,26.886 26.886,26.886l305.829,-0c14.839,-0 26.886,-12.047 26.886,-26.886l0,-53.772Z" style="fill:#ebebeb;stroke:#000;stroke-width:18.75px;"/><circle cx="253.053" cy="246.228" r="34.028"/><circle cx="600" cy="600" r="19.84" style="fill:#ebebeb;stroke:#000;stroke-width:10.42px;"/><circle cx="944.982" cy="944.785" r="19.84" style="fill:#ebebeb;stroke:#000;stroke-width:10.42px;"/><circle cx="253.053" cy="246.228" r="18.14" style="fill:#ebebeb;"/></svg>