<?xml version="1.0" encoding="UTF-8" standalone="no"?><!DOCTYPE svg PUBLIC "-//W3C//DTD SVG 1.1//EN" "http://www.w3.org/Graphics/SVG/1.1/DTD/svg11.dtd"><svg width="100%" height="100%" viewBox="0 0 1200 1200" version="1.1" xmlns="http://www.w3.org/2000/svg" xmlns:xlink="http://www.w3.org/1999/xlink" xml:space="preserve" xmlns:serif="http://www.serif.com/" style="fill-rule:evenodd;clip-rule:evenodd;stroke-linecap:round;stroke-linejoin:round;stroke-miterlimit:1.5;"><path d="M1082.9,386.336l-0,31.959l-142.662,127.277l-5.095,-31.887l147.757,-127.349Z" style="fill:#ccc;stroke:#000;stroke-width:20.83px;"/><path d="M654.625,310.211l118.467,-78.866l309.813,155.067l-147.757,127.273l-280.523,-203.474Z" style="fill:#ccc;stroke:#000;stroke-width:20.83px;"/><path d="M877.153,317.837c32.009,7.611 54.236,29.598 49.606,49.069c-4.629,19.471 -34.375,29.1 -66.383,21.489c-32.008,-7.611 -54.236,-29.598 -49.606,-49.069c4.63,-19.471 34.375,-29.1 66.383,-21.489Z" style="fill:#ccc;stroke:#000;stroke-width:16.67px;"/><path d="M421.119,425.418l331.035,206.687l-5.041,75.617l-342.797,-208.367l16.803,-73.937Z" style="fill:#333;stroke:#000;stroke-width:20.83px;"/><path d="M752.154,707.722l191.598,-164.678l-5.075,-84.019l-181.447,168.039l-5.076,80.658Z" style="fill:#555351;stroke:#000;stroke-width:20.83px;"/><path d="M542.355,489.884c5.08,-4.481 5.566,-12.244 1.085,-17.324l-16.238,-18.409c-4.481,-5.08 -12.244,-5.567 -17.324,-1.086l-388.63,342.803c-5.08,4.481 -5.567,12.244 -1.086,17.324l16.239,18.409c4.481,5.081 12.244,5.567 17.324,1.086l388.63,-342.803Z" style="fill:#ebebeb;stroke:#000;stroke-width:16.67px;"/><path d="M641.997,554.73c5.08,-4.481 5.567,-12.244 1.086,-17.324l-16.239,-18.41c-4.481,-5.08 -12.244,-5.566 -17.324,-1.085l-388.63,342.803c-5.08,4.481 -5.566,12.244 -1.085,17.324l16.238,18.409c4.481,5.08 12.244,5.567 17.324,1.086l388.63,-342.803Z" style="fill:#ebebeb;stroke:#000;stroke-width:16.67px;"/><path d="M737.607,622.785c5.08,-4.481 5.566,-12.244 1.085,-17.324l-16.238,-18.409c-4.481,-5.08 -12.244,-5.567 -17.324,-1.086l-388.63,342.803c-5.08,4.482 -5.567,12.244 -1.085,17.324l16.238,18.41c4.481,5.08 12.244,5.566 17.324,1.085l388.63,-342.803Z" style="fill:#ebebeb;stroke:#000;stroke-width:16.67px;"/><path d="M413.52,464.544c0.583,10.637 4.441,-18.491 7.599,-39.126l331.035,201.646c-2.051,18.054 -5.695,39.649 -4.638,50.796" style="fill:#333;stroke:#000;stroke-width:16.67px;"/><path d="M421.119,425.418l203.327,-134.431l314.231,168.038l-186.523,168.039l-331.035,-201.646Z" style="fill:#1a1a1a;stroke:#000;stroke-width:20.83px;"/></svg>