<?xml version="1.0" encoding="UTF-8" standalone="no"?><!DOCTYPE svg PUBLIC "-//W3C//DTD SVG 1.1//EN" "http://www.w3.org/Graphics/SVG/1.1/DTD/svg11.dtd"><svg width="100%" height="100%" viewBox="0 0 1200 1200" version="1.1" xmlns="http://www.w3.org/2000/svg" xmlns:xlink="http://www.w3.org/1999/xlink" xml:space="preserve" xmlns:serif="http://www.serif.com/" style="fill-rule:evenodd;clip-rule:evenodd;stroke-linecap:round;stroke-linejoin:round;stroke-miterlimit:1.5;"><g><path d="M600,437.841c0,-0 -265.711,-17.084 -323.222,31.927c-57.511,49.011 -59.373,207.807 -21.845,262.139c37.529,54.332 247.016,63.855 247.016,63.855l98.051,-159.637" style="fill:#7cb5ff;"/><path d="M600,437.841c0,-0 265.711,-17.084 323.222,31.927c57.511,49.011 59.373,207.807 21.845,262.139c-37.529,54.332 -247.016,63.855 -247.016,63.855l-98.051,-159.637" style="fill:#7cb5ff;"/></g><clipPath id="_clip1"><rect x="323.118" y="434.958" width="43.003" height="360.804"/></clipPath><g clip-path="url(#_clip1)"><path d="M600,437.841c0,-0 -265.711,-17.084 -323.222,31.927c-57.511,49.011 -59.373,207.807 -21.845,262.139c37.529,54.332 247.016,63.855 247.016,63.855l98.051,-159.637" style="fill:#fff;fill-opacity:0.37;"/></g><g><clipPath id="_clip2"><rect x="366.121" y="434.958" width="119.92" height="360.804"/></clipPath><g clip-path="url(#_clip2)"><path d="M603.309,437.841c-0,-0 -265.711,-17.084 -323.222,31.927c-57.511,49.011 -59.374,207.807 -21.845,262.139c37.528,54.332 247.016,63.855 247.016,63.855l98.051,-159.637" style="fill:#fff;fill-opacity:0.26;"/><path d="M603.309,437.841c-0,-0 265.711,-17.084 323.222,31.927c57.511,49.011 59.373,207.807 21.845,262.139c-37.529,54.332 -247.016,63.855 -247.016,63.855l-98.051,-159.637" style="fill:#fff;fill-opacity:0.26;"/></g></g><path d="M399.933,420.446c100.074,-71.951 300.06,-72.234 400.134,-0" style="fill:#003f88;stroke:#000;stroke-width:20.83px;"/><path d="M600,437.841c0,-0 -265.711,-17.084 -323.222,31.927c-57.511,49.011 -59.373,207.807 -21.845,262.139c37.529,54.332 247.016,63.855 247.016,63.855l98.051,-159.637" style="fill:none;stroke:#fdc500;stroke-width:35.1px;"/><path d="M600,437.841c0,-0 265.711,-17.084 323.222,31.927c57.511,49.011 59.373,207.807 21.845,262.139c-37.529,54.332 -247.016,63.855 -247.016,63.855l-98.051,-159.637" style="fill:none;stroke:#fdc500;stroke-width:35.1px;"/><path d="M600,423.56c0,0 -287.086,-18.458 -349.223,34.496c-62.138,52.954 -64.15,224.524 -23.602,283.227c40.547,58.703 266.887,68.991 266.887,68.991l105.938,-172.478" style="fill:none;stroke:#000;stroke-width:35.42px;"/><path d="M600,423.56c0,0 287.086,-18.458 349.223,34.496c62.138,52.954 64.15,224.524 23.602,283.227c-40.547,58.703 -266.887,68.991 -266.887,68.991l-105.938,-172.478" style="fill:none;stroke:#000;stroke-width:35.42px;"/><path d="M600,660.545c30.436,-0 106.527,147.913 91.309,177.496c-7.609,14.791 -49.459,22.705 -91.309,22.705c-41.85,-0 -83.7,-7.914 -91.309,-22.705c-15.218,-29.583 60.873,-177.496 91.309,-177.496Z" style="fill:#003f88;stroke:#000;stroke-width:20.83px;"/><path d="M1181.94,854.521l0.608,-575.641l-81.695,-0l0,553.679c0,68.925 -85.612,124.444 -188.667,168.15l-268.3,95.466l36.808,80.018l243.255,-91.22c138.026,-51.782 259.072,-96.04 257.991,-230.452Z" style="fill:#fff;stroke:#000;stroke-width:20.83px;"/><path d="M917.572,999.324l31.586,75.073l-266.753,101.796l-34.39,-77.226l269.557,-99.643Z" style="fill:#003f88;stroke:#000;stroke-width:20.83px;"/><path d="M1100.86,278.88l0,-114.091l81.695,-75.771l-0,189.862l-81.695,-0Z" style="fill:#fdc500;stroke:#000;stroke-width:20.83px;"/><g><path d="M199.865,558.454l-75.485,-40.009l-0,120.027l75.485,30.407l0,-110.425" style="fill:#003f88;stroke:#000;stroke-width:20.83px;"/><path d="M124.38,518.445l104.023,-44.81l-28.538,81.618l-75.485,-36.808Z" style="fill:#003f88;stroke:#000;stroke-width:20.83px;"/></g><g><path d="M998.881,558.454l75.485,-40.009l0,120.027l-75.485,30.407l-0,-110.425" style="fill:#003f88;stroke:#000;stroke-width:20.83px;"/><path d="M1074.37,518.445l-104.023,-44.81l28.538,81.618l75.485,-36.808Z" style="fill:#003f88;stroke:#000;stroke-width:20.83px;"/></g><path d="M706.409,1074.4l-87.181,-50.337l58.159,-23.776l46.637,28.815l66.493,-24.691l12.072,-51.293l46.432,-23.066l-15.2,99.009l-127.412,45.339Z" style="fill:#fdc500;stroke:#000;stroke-width:20.83px;"/></svg>