<?xml version="1.0" encoding="UTF-8"?>
<!DOCTYPE svg PUBLIC "-//W3C//DTD SVG 1.1//EN" "http://www.w3.org/Graphics/SVG/1.1/DTD/svg11.dtd">
<svg version="1.1" xmlns="http://www.w3.org/2000/svg" xmlns:xlink="http://www.w3.org/1999/xlink" x="0" y="0" width="254.365" height="111.269" viewBox="0, 0, 254.365, 111.269">
  <g id="Background"/>
  <g id="Layer_1">
    <path d="M233.452,0.126 C234.727,0.317 236.002,0.381 237.277,0.636 C241.421,1.465 245.437,2.676 248.88,5.226 C252.514,7.904 254.234,11.474 254.362,15.936 C254.425,19.761 253.469,23.395 252.322,27.029 C248.625,38.632 243.269,49.469 236.767,59.669 C231.794,67.447 226.248,74.714 220.319,81.727 C217.514,85.041 214.646,88.42 211.459,91.416 C208.845,93.839 206.167,96.135 203.234,98.174 C202.979,98.365 202.724,98.43 202.469,98.238 C201.831,97.919 201.13,97.728 200.429,97.664 C200.301,97.664 200.111,97.664 200.046,97.473 C199.983,97.282 200.174,97.282 200.302,97.155 C203.871,94.414 207.187,91.354 210.246,88.039 C213.434,84.66 216.366,81.153 219.299,77.52 C224.654,70.954 229.563,64.069 233.771,56.737 C236.512,52.02 239.125,47.174 241.102,42.075 C242.313,38.887 243.206,35.636 243.588,32.258 C244.034,28.688 243.715,25.118 241.994,21.866 C240.4,18.742 237.849,16.575 234.726,15.109 C232.176,13.898 229.435,13.324 226.629,13.069 C224.079,12.814 221.593,12.687 219.043,12.75 C215.026,12.814 211.074,13.26 207.121,13.961 C201.384,14.981 195.646,16.001 189.909,17.085 C179.645,18.998 169.382,21.165 159.5,24.544 C148.854,28.178 138.335,32.002 127.88,36.083 C122.462,38.187 117.107,40.418 111.816,42.649 C108.31,44.115 104.867,45.709 101.424,47.175 C101.233,47.239 101.106,47.303 100.914,47.366 C100.659,47.493 100.468,47.366 100.468,47.111 C100.468,45.836 100.468,44.561 100.468,43.286 C100.468,42.968 100.723,42.84 100.978,42.712 C103.337,41.629 105.759,40.608 108.118,39.524 C120.103,34.296 132.215,29.324 144.328,24.416 C152.679,21.037 161.03,17.595 169.382,14.216 C176.904,11.22 184.618,8.797 192.459,6.758 C201.129,4.527 209.799,2.678 218.597,1.084 C221.275,0.574 224.016,0.191 226.757,0.064 C226.884,0.064 226.948,-0 227.075,-0 C229.245,0.126 231.348,0.126 233.452,0.126 z" fill="#FFFFFF"/>
    <path d="M0,105.25 C2.996,102.382 6.056,99.513 9.244,96.836 C11.22,95.178 12.368,93.074 12.622,90.461 C12.877,87.91 13.451,85.488 14.088,83.002 C14.662,80.771 15.108,78.476 15.937,76.371 C17.212,73.311 19.188,70.889 21.993,69.168 C26.965,66.172 32.065,63.367 37.102,60.498 C37.357,60.37 37.612,60.37 37.867,60.498 C39.142,61.263 39.142,61.263 39.142,62.793 C39.142,66.873 39.142,70.953 39.142,74.969 C39.142,75.607 39.142,75.543 39.716,75.352 C43.095,74.141 45.964,72.038 49.024,70.252 C51.447,68.85 53.805,67.383 56.228,65.981 C56.738,65.663 56.802,65.726 56.802,66.299 C56.802,67.192 56.802,68.084 56.802,68.977 C56.802,69.423 56.611,69.615 56.292,69.805 C48.706,74.013 41.247,78.412 33.852,82.938 C28.433,86.317 23.142,90.014 17.914,93.711 C12.304,97.729 6.758,101.808 1.148,105.697 C0.51,106.142 0.319,105.697 0.001,105.378 C0,105.378 0,105.314 0,105.25 z M38.122,70.124 C38.122,67.893 38.122,66.299 38.122,64.642 C38.122,64.196 38.059,63.686 37.867,63.24 C37.612,62.602 37.23,62.411 36.528,62.411 C35.827,62.475 35.317,62.857 34.807,63.24 C30.918,66.045 27.094,68.914 23.396,71.973 C21.994,73.12 20.974,74.459 20.527,76.244 C19.634,80.069 19.188,83.958 18.551,87.783 C18.487,88.101 18.551,88.356 18.869,88.548 C19.188,88.739 19.379,88.676 19.634,88.485 C25.308,84.788 31.045,81.153 36.719,77.392 C37.484,76.882 37.803,76.245 37.93,75.416 C38.186,73.439 37.994,71.463 38.122,70.124 z" fill="#FFFFFF"/>
    <path d="M99.258,67.766 C99.258,75.352 99.258,82.938 99.258,90.588 C99.258,91.544 99.258,91.544 98.238,91.544 C95.56,91.544 92.946,91.544 90.269,91.544 C89.631,91.544 89.567,91.544 89.567,90.843 C89.567,84.851 89.567,78.794 89.567,72.802 C89.567,71.909 89.567,71.909 88.675,71.909 C81.917,71.909 75.16,71.909 68.339,71.909 C67.51,71.909 67.51,71.909 67.51,72.802 C67.51,78.794 67.51,84.787 67.51,90.715 C67.51,91.544 67.51,91.544 66.681,91.544 C64.004,91.544 61.326,91.544 58.712,91.544 C58.011,91.544 58.011,91.544 58.011,90.843 C58.011,75.479 58.011,60.115 58.011,44.752 C58.011,43.987 58.011,43.987 58.776,43.987 C61.454,43.987 64.195,43.987 66.872,43.987 C67.446,43.987 67.573,44.178 67.573,44.689 C67.573,50.49 67.573,56.292 67.573,62.156 C67.573,62.921 67.573,62.921 68.338,62.921 C75.159,62.921 81.981,62.921 88.802,62.921 C89.567,62.921 89.567,62.921 89.567,62.156 C89.567,56.355 89.567,50.617 89.567,44.816 C89.567,43.923 89.567,43.923 90.46,43.923 C93.074,43.923 95.688,43.923 98.365,43.923 C99.194,43.923 99.194,43.923 99.194,44.752 C99.258,52.401 99.258,60.052 99.258,67.766 z" fill="#FBBA1A"/>
    <path d="M112.965,67.766 C112.965,60.116 112.965,52.466 112.965,44.816 C112.965,43.987 112.965,43.987 113.794,43.987 C120.743,43.987 127.627,43.924 134.577,43.987 C137.445,43.987 140.314,44.433 142.992,45.517 C147.136,47.238 149.43,50.362 150.132,54.761 C150.515,57.375 150.451,59.925 149.75,62.475 C148.538,67 145.542,69.678 141.144,70.954 C138.849,71.655 136.49,71.91 134.131,71.91 C130.497,71.973 126.863,71.91 123.23,71.91 C122.465,71.91 122.465,71.91 122.465,72.675 C122.465,78.667 122.465,84.66 122.465,90.653 C122.465,91.482 122.465,91.482 121.636,91.482 C118.959,91.482 116.281,91.482 113.667,91.482 C112.966,91.482 112.966,91.482 112.966,90.781 C112.965,83.129 112.965,75.416 112.965,67.766 z M129.667,62.984 L129.667,62.984 C131.835,62.984 134.002,62.984 136.233,62.984 C136.488,62.984 136.807,62.92 137.062,62.92 C139.675,62.666 141.206,61.263 141.588,58.649 C141.906,56.227 140.822,54.06 138.146,53.358 C137.317,53.167 136.488,53.039 135.66,53.039 C131.452,53.039 127.308,53.039 123.101,53.039 C122.591,53.039 122.463,53.166 122.463,53.677 C122.463,56.609 122.463,59.479 122.463,62.41 C122.463,62.92 122.654,63.048 123.101,63.048 C125.332,62.984 127.5,62.984 129.667,62.984 z" fill="#FBBA1A"/>
    <path d="M176.587,91.544 C172.571,91.544 169.001,91.098 165.622,89.695 C162.944,88.548 160.522,87.017 158.354,85.041 C157.844,84.596 157.844,84.531 158.291,84.086 C160.14,82.236 161.925,80.451 163.773,78.604 C164.092,78.285 164.347,78.221 164.666,78.604 C166.196,80.26 168.108,81.153 170.212,81.792 C173.145,82.62 176.141,82.875 179.138,82.237 C179.966,82.046 180.732,81.727 181.496,81.344 C183.153,80.388 184.046,77.965 183.473,75.99 C182.962,74.333 181.879,73.249 180.349,72.548 C178.692,71.847 176.97,71.527 175.185,71.337 C171.233,70.89 167.536,69.743 164.22,67.575 C161.862,66.045 160.586,63.75 160.076,61.009 C159.375,57.247 159.821,53.741 162.243,50.618 C164.028,48.323 166.451,46.793 169.064,45.581 C172.125,44.179 175.376,43.732 178.754,43.987 C180.411,44.115 182.068,44.242 183.727,44.625 C186.66,45.263 189.146,46.665 191.504,48.514 C192.077,48.96 192.588,49.471 193.161,49.98 C193.416,50.235 193.48,50.426 193.224,50.681 C191.312,52.594 189.4,54.506 187.487,56.419 C187.232,56.674 187.105,56.674 186.849,56.419 C184.108,53.422 180.538,52.721 176.65,53.04 C175.311,53.167 174.036,53.359 172.825,53.996 C171.295,54.761 170.53,56.1 170.275,57.758 C170.084,59.224 170.848,60.308 171.996,61.073 C173.59,62.093 175.311,62.539 177.097,62.857 C179.264,63.24 181.495,63.495 183.599,64.26 C185.703,65.024 187.679,65.981 189.464,67.256 C191.121,68.467 192.397,69.996 193.098,71.909 C194.373,75.478 194.628,78.985 193.035,82.555 C192.142,84.532 190.74,86.062 189.082,87.401 C185.257,90.269 180.922,91.672 176.587,91.544 z" fill="#FBBA1A"/>
    <path d="M165.303,104.74 C165.303,102.828 165.303,100.978 165.303,99.066 C165.303,98.556 165.494,98.365 166.004,98.365 C167.534,98.365 169.128,98.365 170.657,98.365 C173.909,98.365 175.885,100.214 176.267,103.465 C176.395,104.677 176.395,105.888 176.076,107.035 C175.503,109.586 173.718,111.052 171.103,111.115 C169.382,111.179 167.661,111.115 165.94,111.115 C165.494,111.115 165.366,110.924 165.366,110.478 C165.303,108.629 165.303,106.717 165.303,104.74 z M167.981,104.805 C167.981,105.888 167.981,106.972 167.981,108.055 C167.981,108.438 168.108,108.566 168.491,108.566 C169.256,108.566 170.021,108.566 170.786,108.566 C172.252,108.503 173.209,107.673 173.527,106.208 C173.718,105.315 173.718,104.486 173.59,103.594 C173.272,101.937 172.251,101.108 170.594,101.044 C169.956,101.044 169.319,101.044 168.682,101.044 C168.236,101.044 168.108,101.235 168.108,101.681 C167.981,102.7 167.981,103.784 167.981,104.805 z" fill="#FBBA1A"/>
    <path d="M155.868,106.143 C155.868,104.932 155.868,103.721 155.868,102.446 C155.868,101.299 155.868,100.151 155.868,99.004 C155.868,98.558 155.996,98.366 156.442,98.431 C156.952,98.431 157.462,98.431 157.972,98.431 C158.418,98.431 158.545,98.558 158.545,99.004 C158.545,100.343 158.545,101.681 158.545,103.084 C158.545,105.57 158.545,107.993 158.545,110.48 C158.545,110.734 158.673,111.053 158.354,111.181 C158.036,111.308 157.653,111.308 157.334,111.117 C157.206,110.99 157.079,110.862 156.951,110.734 C154.72,108.504 152.489,106.272 150.258,104.041 C150.13,103.914 150.003,103.658 149.812,103.723 C149.621,103.786 149.684,104.106 149.684,104.233 C149.684,106.337 149.684,108.44 149.684,110.481 C149.684,111.182 149.684,111.182 148.919,111.182 C148.601,111.182 148.218,111.182 147.898,111.182 C146.942,111.182 146.942,111.182 146.942,110.289 C146.942,108.504 146.942,106.719 146.942,104.869 C146.942,102.957 146.942,101.045 146.942,99.133 C146.942,98.877 146.815,98.559 147.133,98.432 C147.452,98.304 147.834,98.368 148.154,98.686 C148.855,99.452 149.62,100.153 150.321,100.854 C151.978,102.512 153.636,104.106 155.23,105.762 C155.357,105.89 155.421,106.081 155.548,106.273 C155.741,106.207 155.804,106.207 155.868,106.143 z" fill="#FBBA1A"/>
    <path d="M211.267,111.18 C208.015,111.37 204.892,108.629 204.828,104.805 C204.828,100.979 207.889,98.239 211.331,98.366 C214.965,98.493 217.643,101.107 217.706,104.805 C217.706,108.437 214.773,111.37 211.267,111.18 z M211.203,108.693 C213.243,108.82 215.028,107.291 215.028,104.804 C215.028,102.381 213.307,100.787 211.267,100.851 C209.036,100.915 207.505,102.381 207.505,104.676 C207.506,107.1 208.972,108.693 211.203,108.693 z" fill="#FBBA1A"/>
    <path d="M88.357,51.126 C88.357,51.636 88.293,52.083 88.357,52.592 C88.42,53.102 88.166,53.421 87.719,53.612 C84.468,55.206 81.217,56.8 77.965,58.394 C75.925,59.414 73.885,60.433 71.845,61.517 C70.952,61.963 69.996,61.708 69.104,61.708 C68.849,61.708 68.849,61.517 68.849,61.325 C68.849,60.624 68.849,59.987 68.849,59.286 C68.849,58.903 69.104,58.775 69.359,58.647 C72.355,57.053 75.352,55.46 78.348,53.866 C81.408,52.272 84.532,50.742 87.656,49.149 C88.357,48.83 88.357,48.83 88.357,49.595 C88.357,50.043 88.357,50.553 88.357,51.126 z" fill="#FFFFFF"/>
    <path d="M203.872,106.589 C203.872,107.418 203.872,108.246 203.872,109.075 C203.872,109.394 203.809,109.586 203.554,109.776 C201.514,111.306 199.219,111.625 196.86,110.86 C194.565,110.095 193.226,108.31 192.781,105.887 C192.079,101.935 195.076,98.429 199.028,98.429 C200.685,98.429 202.152,98.874 203.491,99.831 C203.809,100.085 203.809,100.276 203.554,100.532 C203.171,100.977 202.725,101.425 202.342,101.87 C202.087,102.126 201.896,101.998 201.705,101.87 C200.621,101.169 199.474,100.977 198.198,101.233 C196.222,101.678 195.265,103.337 195.393,105.122 C195.584,108.31 198.326,109.011 200.366,108.501 C201.067,108.31 201.131,108.182 201.131,107.48 C201.131,107.417 201.131,107.417 201.131,107.352 C201.131,106.141 201.131,106.141 199.92,106.078 C199.601,106.078 199.474,105.95 199.474,105.632 C199.474,105.122 199.474,104.612 199.474,104.038 C199.474,103.72 199.601,103.592 199.92,103.592 C201.067,103.592 202.215,103.592 203.299,103.592 C203.681,103.592 203.809,103.783 203.809,104.103 C203.872,104.867 203.872,105.697 203.872,106.589 z" fill="#FBBA1A"/>
    <path d="M186.978,98.43 C188.317,98.43 189.719,98.43 191.058,98.43 C191.504,98.43 191.696,98.557 191.631,99.003 C191.631,99.385 191.568,99.832 191.631,100.214 C191.695,100.787 191.441,100.915 190.93,100.852 C189.273,100.852 187.616,100.852 185.958,100.852 C184.683,100.852 184.811,100.725 184.811,101.999 C184.811,103.401 184.811,103.401 186.213,103.401 C187.233,103.401 188.253,103.401 189.273,103.401 C189.783,103.401 189.974,103.592 189.911,104.039 C189.911,104.422 189.911,104.805 189.911,105.186 C189.974,105.696 189.783,105.887 189.21,105.887 C187.935,105.887 186.66,105.887 185.385,105.887 C184.875,105.887 184.684,106.015 184.747,106.525 C184.811,107.035 184.747,107.481 184.747,107.992 C184.747,108.437 184.875,108.629 185.385,108.629 C187.17,108.629 188.955,108.629 190.804,108.629 C191.569,108.629 191.569,108.629 191.569,109.395 C191.569,109.777 191.569,110.16 191.569,110.541 C191.569,110.988 191.378,111.115 190.996,111.115 C188.956,111.115 186.916,111.115 184.876,111.115 C184.111,111.115 183.409,111.115 182.645,111.115 C182.262,111.115 182.135,110.988 182.135,110.605 C182.135,106.652 182.135,102.763 182.135,98.811 C182.135,98.365 182.326,98.301 182.708,98.301 C184.174,98.43 185.576,98.43 186.978,98.43 z" fill="#FBBA1A"/>
    <path d="M144.585,111.18 C142.991,111.18 143.31,111.434 142.736,109.968 C142.545,109.458 142.29,109.203 141.652,109.267 C140.186,109.33 138.719,109.267 137.254,109.267 C136.871,109.267 136.616,109.395 136.488,109.777 C135.915,111.18 135.915,111.18 134.384,111.18 C133.109,111.18 133.109,111.18 133.619,109.968 C135.085,106.334 136.552,102.637 138.017,99.003 C138.208,98.557 138.4,98.365 138.91,98.365 C139.42,98.429 139.93,98.365 140.44,98.365 C140.758,98.365 140.95,98.492 141.077,98.811 C142.671,102.763 144.201,106.716 145.795,110.605 C145.923,110.988 145.923,111.179 145.412,111.115 C145.158,111.18 144.903,111.18 144.585,111.18 z M139.612,102.127 C139.038,103.593 138.465,104.932 137.955,106.334 C137.827,106.652 138.082,106.652 138.273,106.652 C139.229,106.652 140.122,106.652 141.078,106.652 C141.461,106.652 141.461,106.461 141.334,106.207 C140.951,105.25 140.568,104.294 140.187,103.273 C140.058,102.892 139.995,102.51 139.612,102.127 z" fill="#FBBA1A"/>
    <path d="M93.138,102.7 C93.138,101.489 93.138,100.214 93.138,99.003 C93.138,98.557 93.265,98.365 93.712,98.43 C94.222,98.43 94.668,98.493 95.178,98.43 C95.688,98.366 95.815,98.62 95.815,99.067 C95.815,101.171 95.815,103.274 95.815,105.315 C95.815,105.57 95.815,105.76 95.815,106.016 C95.879,107.354 96.58,108.183 97.855,108.502 C98.493,108.629 99.13,108.629 99.768,108.438 C100.915,108.12 101.553,107.227 101.617,106.016 C101.617,103.721 101.617,101.426 101.617,99.131 C101.617,98.43 101.617,98.43 102.318,98.43 C102.828,98.43 103.338,98.43 103.848,98.43 C104.167,98.43 104.294,98.557 104.294,98.875 C104.23,101.617 104.421,104.357 104.167,107.1 C104.04,108.694 103.02,109.777 101.617,110.541 C99.513,111.625 96.071,111.498 94.222,109.458 C93.393,108.565 93.011,107.481 93.011,106.334 C93.138,105.123 93.138,103.912 93.138,102.7 z" fill="#FBBA1A"/>
    <path d="M127.755,111.18 C125.97,111.243 124.504,110.733 123.229,109.713 C122.847,109.395 122.847,109.203 123.229,108.884 C123.611,108.566 123.93,108.183 124.249,107.864 C124.44,107.673 124.631,107.673 124.823,107.864 C125.907,108.756 127.246,108.884 128.585,108.693 C129.286,108.565 129.668,108.119 129.732,107.545 C129.795,106.972 129.413,106.461 128.775,106.207 C128.329,106.016 127.882,105.951 127.437,105.888 C126.544,105.825 125.715,105.506 124.95,105.123 C122.974,104.23 122.974,101.106 124.44,99.832 C126.48,97.982 130.305,98.11 132.218,99.959 C132.473,100.15 132.473,100.342 132.218,100.533 C131.772,100.915 131.389,101.361 131.006,101.744 C130.815,101.935 130.688,101.935 130.496,101.744 C129.603,100.915 128.456,100.915 127.372,101.106 C126.735,101.234 126.352,101.744 126.352,102.253 C126.352,102.891 126.798,103.082 127.308,103.273 C127.754,103.464 128.201,103.529 128.647,103.592 C129.412,103.655 130.049,103.911 130.751,104.23 C133.237,105.314 133.556,108.755 131.261,110.349 C129.986,110.924 128.902,111.307 127.755,111.18 z" fill="#FBBA1A"/>
    <path d="M111.881,111.18 C108.821,111.37 105.443,108.884 105.443,104.805 C105.443,100.979 108.503,98.366 111.754,98.366 C113.348,98.366 114.751,98.749 116.089,99.641 C116.599,100.024 116.599,100.086 116.216,100.534 C115.898,100.916 115.579,101.235 115.26,101.618 C115.005,101.936 114.814,101.936 114.495,101.745 C113.22,100.979 111.881,100.725 110.543,101.235 C108.821,101.808 107.929,103.593 108.248,105.506 C108.631,107.673 110.543,108.947 112.838,108.502 C113.475,108.374 114.049,108.183 114.559,107.801 C114.814,107.61 115.005,107.61 115.197,107.864 C115.579,108.31 115.962,108.756 116.408,109.203 C116.727,109.521 116.472,109.648 116.281,109.84 C114.941,110.797 113.474,111.242 111.881,111.18 z" fill="#FBBA1A"/>
    <path d="M180.731,104.805 C180.731,106.717 180.731,108.629 180.731,110.541 C180.731,111.052 180.603,111.242 180.03,111.242 C179.519,111.179 179.073,111.242 178.563,111.242 C178.117,111.242 177.99,111.115 177.99,110.669 C177.99,109.648 177.99,108.629 177.99,107.609 C177.99,104.804 177.99,101.999 177.99,99.194 C177.99,98.492 177.99,98.492 178.691,98.492 C179.137,98.492 179.584,98.492 180.03,98.492 C180.475,98.492 180.667,98.683 180.667,99.131 C180.731,100.978 180.731,102.892 180.731,104.805 z" fill="#FBBA1A"/>
    <path d="M191.951,102.7 C192.142,102.7 192.142,102.828 192.078,102.955 C191.951,103.465 191.888,103.976 191.888,104.485 C191.888,104.74 191.25,105.123 191.059,105.058 C190.868,104.995 190.931,104.867 190.931,104.74 C190.931,104.357 190.931,103.912 190.931,103.529 C190.867,103.273 191.632,102.7 191.951,102.7 z" fill="#FFFFFF"/>
    <path d="M177.288,109.33 C177.352,109.713 177.225,109.904 176.843,109.968 C176.524,110.031 176.141,110.159 175.822,110.223 C175.631,110.287 175.504,110.223 175.631,110.032 C175.95,109.587 176.141,109.139 176.778,108.948 C177.161,108.757 177.288,108.82 177.288,109.33 z" fill="#FFFFFF"/>
    <path d="M36.401,70.443 C36.401,71.589 36.401,72.801 36.401,73.949 C36.401,74.076 36.465,74.267 36.274,74.332 C36.083,74.395 35.955,74.268 35.892,74.141 C35.382,73.503 35.063,72.866 34.999,72.037 C34.935,70.315 35.19,68.722 35.828,67.128 C35.892,67 35.892,66.937 35.955,66.809 C36.019,66.682 36.083,66.491 36.21,66.555 C36.401,66.618 36.337,66.809 36.337,66.937 C36.401,68.148 36.401,69.295 36.401,70.443 z" fill="#FFFFFF"/>
  </g>
</svg>
