<svg version="1.1" id="Layer_1" xmlns="http://www.w3.org/2000/svg" xmlns:xlink="http://www.w3.org/1999/xlink" x="0px" y="0px"
	 width="100%" viewBox="0 0 1024 336" enable-background="new 0 0 1024 336" xml:space="preserve">
<path fill="#000000" opacity="1.000000" stroke="none" 
	d="
M1.000000,96.468658 
	C7.674751,89.388344 14.515031,89.060280 18.775352,95.178978 
	C20.777876,98.055008 21.004406,101.389168 21.009781,104.740334 
	C21.028194,116.221825 21.017391,127.703346 21.018768,139.184860 
	C21.022917,173.795807 21.027792,208.406738 21.031195,243.017685 
	C21.031342,244.515228 21.066917,246.014740 21.005253,247.509995 
	C20.748644,253.732285 18.212099,257.839325 13.522253,259.290802 
	C8.270429,260.916199 4.535074,258.493164 1.255807,254.222626 
	C1.000000,201.645767 1.000000,149.291550 1.000000,96.468658 
z"/>
<path fill="#000000" opacity="1.000000" stroke="none" 
	d="
M412.550018,1.000000 
	C417.234467,4.410742 418.539581,8.788797 418.453522,14.212556 
	C418.189178,30.870241 418.420837,47.535183 418.334625,64.196655 
	C418.304626,69.990982 415.360291,73.637245 410.306152,74.780403 
	C406.127625,75.725525 401.650787,73.476547 399.480347,69.407181 
	C398.751190,68.040115 398.473358,66.625038 398.463531,65.090591 
	C398.355072,48.101025 398.237640,31.111467 398.084534,14.122254 
	C398.039124,9.084130 398.805237,4.448012 403.766296,1.246781 
	C406.700012,1.000000 409.400024,1.000000 412.550018,1.000000 
z"/>
<path fill="#000000" opacity="1.000000" stroke="none" 
	d="
M280.468536,337.000000 
	C281.299072,332.878784 279.930450,328.744965 280.010071,324.610321 
	C280.224731,313.465088 280.078705,302.313232 280.126831,291.164246 
	C280.136139,289.008087 280.206268,286.825897 280.542908,284.702423 
	C281.521912,278.527374 285.865753,274.915955 291.482178,275.427124 
	C296.954315,275.925140 300.333008,279.842773 300.372314,286.100983 
	C300.470490,301.731323 300.455322,317.362396 300.508057,332.993073 
	C300.511932,334.144989 300.695160,335.296326 300.897491,336.723969 
	C294.312347,337.000000 287.624725,337.000000 280.468536,337.000000 
z"/>
<path fill="#000000" opacity="1.000000" stroke="none" 
	d="
M1025.000000,90.536819 
	C1019.102905,101.827148 1005.749817,101.152122 1000.020874,94.818932 
	C994.419312,88.626480 994.567200,79.527573 1000.596741,73.715942 
	C1006.513977,68.012527 1016.569824,68.266663 1022.167114,74.305695 
	C1023.065857,75.275383 1023.764648,76.430351 1024.777832,77.749847 
	C1025.000000,82.024544 1025.000000,86.049088 1025.000000,90.536819 
M1018.718262,92.455330 
	C1022.279480,87.784515 1022.998169,82.713623 1020.342957,78.659225 
	C1017.756226,74.709442 1013.967651,72.819168 1009.229004,73.721802 
	C1004.648071,74.594406 1001.233154,77.083687 1000.287415,81.938637 
	C999.394958,86.520195 1000.384705,90.612595 1004.444092,93.390930 
	C1008.886658,96.431549 1013.406372,96.585724 1017.994690,93.022293 
	C1017.994690,93.022293 1018.174133,92.839447 1018.718262,92.455330 
z"/>
<path fill="#000000" opacity="1.000000" stroke="none" 
	d="
M872.146973,107.114594 
	C914.197144,73.227081 976.400269,84.504814 1002.308289,130.996643 
	C1028.979004,178.857117 1007.289307,245.098114 949.363892,259.532593 
	C898.975220,272.088959 851.066956,243.486115 842.325623,190.016678 
	C837.018127,157.551376 846.874023,129.489151 872.146973,107.114594 
M963.680725,117.796227 
	C961.962463,116.777939 960.263428,115.725479 958.523071,114.746498 
	C933.156982,100.477554 901.157288,105.088066 880.883972,125.922737 
	C859.564941,147.832138 855.971741,184.548141 872.405212,212.561508 
	C895.728088,252.318924 954.601746,253.863968 980.438843,215.719238 
	C999.547241,187.508530 996.286377,140.932816 963.680725,117.796227 
z"/>
<path fill="#000000" opacity="1.000000" stroke="none" 
	d="
M388.970520,209.050110 
	C391.739197,212.503983 394.293884,215.673859 397.009979,219.044037 
	C398.395905,216.811295 397.892059,214.943863 397.895844,213.187592 
	C397.945892,189.855576 397.921478,166.523407 397.966278,143.191376 
	C397.972015,140.199173 398.021118,137.170410 398.473602,134.223618 
	C399.329376,128.650558 403.609802,125.163803 408.848511,125.411362 
	C413.877563,125.649017 417.962646,129.863525 418.353516,135.242371 
	C418.413757,136.071838 418.389435,136.908112 418.389404,137.741226 
	C418.388092,174.239319 418.379669,210.737427 418.391663,247.235519 
	C418.392731,250.436050 418.314911,253.572586 416.242950,256.281372 
	C412.725647,260.879883 406.145874,261.486725 401.680603,257.296783 
	C399.267792,255.032684 397.244415,252.333115 395.173645,249.727997 
	C364.690704,211.379013 334.230103,173.012268 303.758209,134.654480 
	C303.044037,133.755508 302.260620,132.911499 300.522766,130.899414 
	C300.522766,133.767365 300.563507,135.447830 300.516632,137.125824 
	C299.855347,160.784363 301.133636,184.426529 301.087677,208.079086 
	C301.081879,211.067154 300.943085,214.096039 300.440369,217.033188 
	C299.501648,222.518005 295.760071,225.485672 290.342834,225.445084 
	C285.201721,225.406586 281.641602,222.481049 280.669525,217.161194 
	C280.223938,214.722580 280.119263,212.194153 280.116913,209.706238 
	C280.085175,176.208038 280.084900,142.709778 280.124969,109.211601 
	C280.128540,106.221031 280.368866,103.220833 280.673096,100.242859 
	C281.128357,95.786751 283.642029,92.930710 287.909760,91.662094 
	C292.057831,90.429031 295.519165,91.819801 298.234680,94.914337 
	C300.868469,97.915703 303.221863,101.162552 305.709778,104.292572 
	C333.390747,139.118118 361.073883,173.941879 388.970520,209.050110 
z"/>
<path fill="#000000" opacity="1.000000" stroke="none" 
	d="
M578.186401,116.386528 
	C587.137085,99.065529 602.077576,91.153114 620.160034,88.948006 
	C641.275757,86.373001 661.282532,90.290848 679.502380,101.825203 
	C685.980835,105.926529 687.946655,111.589844 684.520569,116.793999 
	C681.167419,121.887367 675.441895,122.578377 669.163879,118.641312 
	C652.700562,108.316826 635.110352,103.516502 615.822388,108.518410 
	C600.072510,112.602791 592.135132,125.073563 595.302979,139.991913 
	C596.556091,145.893158 600.137146,150.131302 605.090637,153.303329 
	C614.963989,159.625961 626.166992,162.254364 637.394958,164.759201 
	C649.616943,167.485825 661.688721,170.631821 672.734741,176.787811 
	C696.422119,189.988800 702.313049,220.361893 685.277100,241.624130 
	C675.515503,253.807388 662.242432,259.524933 647.189026,261.172974 
	C622.964539,263.825012 600.586121,258.352417 580.291260,244.695358 
	C577.485901,242.807541 574.958252,240.712402 573.378784,237.644058 
	C571.412720,233.824493 571.625793,230.155945 574.587769,227.019501 
	C577.651001,223.775833 581.540161,223.035629 585.567627,224.903061 
	C587.955750,226.010376 590.056030,227.747101 592.263367,229.234100 
	C611.298340,242.056931 631.801392,247.479080 654.322815,240.606705 
	C668.864746,236.169250 675.675293,224.860611 673.612549,209.844879 
	C672.710876,203.281235 668.850403,198.596390 663.379700,195.176605 
	C655.056885,189.974030 645.739258,187.417542 636.286133,185.317337 
	C624.411438,182.679108 612.664368,179.763855 601.384155,174.995590 
	C574.486877,163.625748 569.332336,138.399368 578.186401,116.386528 
z"/>
<path fill="#000000" opacity="1.000000" stroke="none" 
	d="
M793.085266,109.161057 
	C791.266602,109.166458 789.927856,109.256943 788.602600,109.160843 
	C785.391235,108.927963 784.128906,110.337517 784.199829,113.560562 
	C784.339111,119.887581 784.227356,126.220009 784.228271,132.550201 
	C784.233521,170.198257 784.243958,207.846329 784.246216,245.494385 
	C784.246765,254.672806 780.558167,259.765594 773.963257,259.736633 
	C767.458862,259.708099 763.784058,254.543793 763.781921,245.288376 
	C763.771912,202.143021 763.782837,158.997665 763.784180,115.852318 
	C763.784424,109.174271 763.779419,109.154160 757.235229,109.146904 
	C744.075073,109.132324 730.914978,109.143166 717.754822,109.140953 
	C713.287720,109.140198 710.066956,107.149071 708.386902,102.988060 
	C707.006470,99.569054 707.750305,96.408791 710.182068,93.714478 
	C712.196716,91.482399 714.826843,90.655045 717.818604,90.656685 
	C755.466675,90.677277 793.114746,90.637917 830.762695,90.704819 
	C836.563049,90.715126 840.676514,94.633301 840.818542,99.732536 
	C840.956665,104.692291 836.344971,109.097473 830.552673,109.145699 
	C818.226379,109.248314 805.898499,109.167122 793.085266,109.161057 
z"/>
<path fill="#000000" opacity="1.000000" stroke="none" 
	d="
M77.709885,184.306946 
	C93.280968,203.859665 108.608917,223.149185 123.966766,242.414856 
	C126.925232,246.126099 128.045929,249.996094 125.508614,254.379517 
	C123.132103,258.485138 119.472786,259.862305 114.929649,259.361145 
	C112.059052,259.044464 110.058846,257.296387 108.370789,255.179993 
	C87.815910,229.409256 67.298180,203.608871 46.719971,177.856781 
	C45.000221,175.704651 44.803307,174.079407 46.650620,171.768051 
	C67.125481,146.149933 87.464485,120.423271 107.922035,94.791252 
	C112.745834,88.747345 120.321014,88.817024 124.427544,94.772247 
	C127.379517,99.053131 126.782608,103.212418 123.638428,107.185410 
	C108.454758,126.371513 93.284737,145.568405 78.108994,164.760773 
	C78.005852,164.891235 77.887466,165.009521 77.780960,165.137466 
	C69.974236,174.515732 69.974289,174.515778 77.709885,184.306946 
z"/>
<path fill="#000000" opacity="1.000000" stroke="none" 
	d="
M299.973724,259.903503 
	C256.704224,259.911255 213.929672,259.925018 171.155121,259.908691 
	C168.666946,259.907745 166.143112,259.882507 163.698227,259.485077 
	C158.748062,258.680359 155.636505,254.883926 155.733459,250.153336 
	C155.823685,245.750626 159.043533,241.990829 163.626129,241.165573 
	C165.247406,240.873596 166.939270,240.906418 168.599030,240.905060 
	C214.369217,240.867477 260.139404,240.844864 305.909607,240.818726 
	C308.574554,240.817200 311.250488,240.742630 313.791077,241.753220 
	C317.798370,243.347214 319.944031,246.424469 319.840698,250.623535 
	C319.731293,255.067932 317.274109,258.119781 312.898346,259.296875 
	C308.818451,260.394348 304.616058,259.754486 299.973724,259.903503 
z"/>
<path fill="#000000" opacity="1.000000" stroke="none" 
	d="
M378.296570,95.501587 
	C380.694305,91.715324 383.950562,90.627693 387.894135,90.630898 
	C435.510651,90.669579 483.127228,90.642647 530.743774,90.678123 
	C537.510315,90.683167 541.303284,94.160217 541.254456,99.987343 
	C541.209290,105.379738 537.212463,109.154282 530.970581,109.160530 
	C483.021179,109.208580 435.071533,109.219650 387.122223,109.119011 
	C379.360474,109.102707 375.638489,103.324585 378.296570,95.501587 
z"/>
<path fill="#000000" opacity="1.000000" stroke="none" 
	d="
M164.529114,183.320404 
	C158.999390,181.299911 156.378830,177.632172 156.930740,173.271347 
	C157.532303,168.518173 161.161682,165.089386 166.696640,165.052307 
	C189.499084,164.899628 212.303726,164.881149 235.106049,165.036469 
	C241.062851,165.077042 245.088654,169.602310 244.774689,174.944946 
	C244.478394,179.987366 240.366959,183.399704 234.383133,183.401810 
	C211.246475,183.410004 188.109833,183.375137 164.529114,183.320404 
z"/>
<path fill="#000000" opacity="1.000000" stroke="none" 
	d="
M202.000000,109.196259 
	C190.361664,109.188545 179.223206,109.210449 168.085052,109.161285 
	C161.190491,109.130852 156.860092,105.470467 156.883316,99.829666 
	C156.906158,94.275871 161.300201,90.664467 168.201035,90.656456 
	C189.978928,90.631172 211.756897,90.624916 233.534775,90.653145 
	C240.520874,90.662201 244.640564,94.150208 244.730728,99.959373 
	C244.815765,105.438919 240.316513,109.162041 233.421387,109.189262 
	C223.114410,109.229958 212.807144,109.197311 202.000000,109.196259 
z"/>
<path fill="#000000" opacity="1.000000" stroke="none" 
	d="
M530.637329,240.841095 
	C538.031494,241.703278 541.463989,245.049606 541.230652,250.729874 
	C541.002441,256.287689 537.095154,259.361267 530.051270,259.367767 
	C508.061768,259.388092 486.072144,259.400696 464.082794,259.339325 
	C457.499542,259.320953 453.569946,255.594025 453.711823,249.830276 
	C453.849548,244.234726 457.772369,240.902267 464.711884,240.862228 
	C479.371063,240.777664 494.031067,240.837006 508.690735,240.836777 
	C515.854004,240.836655 523.017212,240.835342 530.637329,240.841095 
z"/>
<path fill="#000000" opacity="1.000000" stroke="none" 
	d="
M539.435181,168.824188 
	C543.433228,177.259689 539.874084,183.352890 531.172241,183.378693 
	C508.557251,183.445770 485.941803,183.419250 463.326721,183.364914 
	C457.725800,183.351456 454.240295,180.301147 453.740967,175.309952 
	C453.232605,170.228622 456.524353,166.109955 461.938751,165.198502 
	C463.403015,164.952011 464.919159,164.945892 466.411591,164.944824 
	C487.363922,164.929764 508.316315,164.956223 529.268555,164.914963 
	C533.057556,164.907501 536.585449,165.365494 539.435181,168.824188 
z"/>
<path fill="#000000" opacity="1.000000" stroke="none" 
	d="
M1017.907104,93.115761 
	C1014.093201,94.000938 1012.460388,91.419067 1010.789307,88.354568 
	C1009.682251,90.343796 1010.061462,93.474617 1007.048462,92.890076 
	C1004.332581,92.363182 1005.005615,89.845795 1004.907837,87.954964 
	C1004.804688,85.962463 1004.792542,83.953926 1004.920349,81.963936 
	C1005.052612,79.904625 1004.164734,77.152939 1006.727234,76.224884 
	C1009.604858,75.182739 1012.747498,75.440521 1015.226257,77.555420 
	C1017.407898,79.416779 1017.639221,81.899353 1016.216125,84.343742 
	C1014.309631,87.618523 1017.946228,89.434143 1018.135376,92.489807 
	C1018.174133,92.839447 1017.994690,93.022293 1017.907104,93.115761 
z"/>
</svg>