<?xml version="1.0" encoding="UTF-8"?>
<!DOCTYPE svg PUBLIC "-//W3C//DTD SVG 1.1//EN" "http://www.w3.org/Graphics/SVG/1.1/DTD/svg11.dtd">
<svg version="1.1" xmlns="http://www.w3.org/2000/svg" xmlns:xlink="http://www.w3.org/1999/xlink" x="0" y="0" width="230" height="70" viewBox="0, 0, 230, 70">
  <g id="Layer_1">
    <g>
      <path d="M217.6,8 L171.6,8 C169.4,8 167.6,9.7 167.6,11.9 L167.6,58.1 C167.6,60.3 169.4,62 171.6,62 L217.6,62 C219.8,62 221.6,60.3 221.6,58.1 L221.6,11.9 C221.6,9.7 219.8,8 217.6,8 z" fill="#000000"/>
      <path d="M175.6,28.2 L183.6,28.2 L183.6,54 L175.6,54 L175.6,28.2 z M179.6,15.4 C182.2,15.4 184.2,17.5 184.2,20 C184.2,22.6 182.1,24.6 179.6,24.6 C177,24.6 175,22.5 175,20 C175,17.5 177.1,15.4 179.6,15.4" fill="#FFFFFF"/>
      <path d="M188.6,28.2 L196.3,28.2 L196.3,31.7 L196.4,31.7 C197.5,29.7 200.1,27.5 204,27.5 C212.1,27.5 213.6,32.8 213.6,39.8 L213.6,54 L205.6,54 L205.6,41.5 C205.6,38.5 205.5,34.7 201.4,34.7 C197.2,34.7 196.6,38 196.6,41.3 L196.6,54 L188.6,54 L188.6,28.2 z" fill="#FFFFFF"/>
    </g>
    <g>
      <path d="M8.5,16 L16.8,16 L16.8,46.3 L32.3,46.3 L32.3,54 L8.5,54 z" fill="#000000"/>
      <path d="M35.9,28.2 L43.9,28.2 L43.9,54 L35.9,54 L35.9,28.2 z M39.9,15.4 C42.5,15.4 44.5,17.5 44.5,20 C44.5,22.6 42.4,24.6 39.9,24.6 C37.3,24.6 35.3,22.5 35.3,20 C35.3,17.5 37.4,15.4 39.9,15.4" fill="#000000"/>
      <path d="M77.4,16 L85.4,16 L85.4,38.7 L94.5,28.2 L104.3,28.2 L93.8,40.2 L104.1,54 L94,54 L85.5,41.3 L85.4,41.3 L85.4,54 L77.4,54 z" fill="#000000"/>
      <path d="M48.4,28.2 L56.1,28.2 L56.1,31.7 L56.2,31.7 C57.3,29.7 59.9,27.5 63.8,27.5 C71.9,27.5 73.4,32.8 73.4,39.8 L73.4,54 L65.4,54 L65.4,41.5 C65.4,38.5 65.3,34.7 61.2,34.7 C57,34.7 56.4,38 56.4,41.3 L56.4,54 L48.4,54 L48.4,28.2 z" fill="#000000"/>
      <path d="M121.1,38.1 C121.2,35.4 119.1,33.2 116.2,33.2 C112.7,33.2 110.8,35.6 110.5,38.1 L121.1,38.1 z M127.9,49.5 C125.3,52.8 121.1,54.6 117,54.6 C109,54.6 102.6,49.3 102.6,41 C102.6,32.7 109,27.4 117,27.4 C124.5,27.4 129.2,32.7 129.2,41 L129.2,43.5 L110.6,43.5 C111.2,46.5 113.5,48.5 116.6,48.5 C119.2,48.5 121,47.2 122.3,45.3 L127.9,49.5 z" fill="#000000"/>
      <path d="M145.8,34.5 C141.8,34.5 139.4,37.2 139.4,41.1 C139.4,45 141.8,47.7 145.8,47.7 C149.8,47.7 152.2,45 152.2,41.1 C152.2,37.1 149.8,34.5 145.8,34.5 M159.6,54 L152.2,54 L152.2,50.6 L152.1,50.6 C150.9,52.5 147.8,54.7 144.1,54.7 C136.4,54.7 131.3,49.2 131.3,41.3 C131.3,34.1 135.8,27.5 143.1,27.5 C146.4,27.5 149.5,28.4 151.3,30.9 L151.4,30.9 L151.4,16 L159.4,16 L159.4,54 z" fill="#000000"/>
    </g>
  </g>
</svg>
