<?xml version="1.0" encoding="UTF-8"?>
<!DOCTYPE svg PUBLIC "-//W3C//DTD SVG 1.1//EN" "http://www.w3.org/Graphics/SVG/1.1/DTD/svg11.dtd">
<svg version="1.1" xmlns="http://www.w3.org/2000/svg" xmlns:xlink="http://www.w3.org/1999/xlink" x="0" y="0" width="95.832" height="21.216" viewBox="0, 0, 95.832, 21.216">
  <g id="northrop_grum_white">
    <path d="M11.44,19.576 C10.562,18.675 10.111,17.544 10.111,16.194 C10.111,14.866 10.562,13.746 11.44,12.834 C12.353,11.9 13.481,11.438 14.835,11.438 C16.662,11.438 18.026,12.176 18.94,13.654 L17.042,14.67 C16.995,14.555 16.898,14.427 16.756,14.277 C16.247,13.724 15.593,13.447 14.81,13.447 C14.027,13.447 13.445,13.746 13.054,14.335 C12.722,14.831 12.555,15.478 12.555,16.286 C12.555,17.105 12.757,17.74 13.149,18.214 C13.577,18.734 14.206,18.988 15.024,18.988 C15.499,18.988 15.938,18.838 16.33,18.549 C16.756,18.237 16.995,17.868 17.042,17.417 L14.954,17.417 L14.954,15.57 L19.51,15.57 L19.51,16.056 C19.51,17.556 19.13,18.734 18.358,19.588 C17.551,20.477 16.388,20.927 14.857,20.927 C13.469,20.927 12.331,20.477 11.44,19.576" fill="#000000"/>
    <path d="M30.533,20.154 C29.725,19.565 29.31,18.757 29.31,17.741 L29.31,11.761 L31.683,11.761 L31.683,17.256 C31.683,18.318 32.23,18.849 33.323,18.849 C33.808,18.849 34.226,18.722 34.512,18.468 C34.808,18.204 34.963,17.834 34.963,17.372 L34.963,11.761 L37.334,11.761 L37.334,17.488 C37.334,18.607 36.94,19.473 36.146,20.097 C35.423,20.65 34.461,20.927 33.273,20.927 C32.182,20.927 31.268,20.673 30.533,20.154" fill="#000000"/>
    <path d="M69.32,17.187 L68.359,14.486 L67.386,17.187 z M67.034,11.761 L69.748,11.761 L73.118,20.604 L70.554,20.604 L69.937,18.965 L66.794,18.965 L66.188,20.604 L63.659,20.604 z" fill="#000000"/>
    <path d="M74.424,11.761 L76.798,11.761 L80.979,17.002 L80.979,11.761 L83.348,11.761 L83.348,20.604 L80.974,20.604 L76.796,15.328 L76.796,20.604 L74.424,20.604 z" fill="#000000"/>
    <path d="M0,0.611 L2.372,0.611 L6.623,5.852 L6.623,0.611 L8.99,0.611 L8.99,9.453 L6.55,9.453 L2.372,4.178 L2.372,9.453 L0,9.453 z" fill="#000000"/>
    <path d="M17.006,6.88 C17.492,6.395 17.742,5.761 17.742,4.986 C17.742,4.271 17.492,3.671 16.994,3.187 C16.496,2.701 15.867,2.459 15.119,2.459 C14.36,2.459 13.742,2.713 13.244,3.197 C12.757,3.683 12.508,4.305 12.508,5.056 C12.508,5.806 12.746,6.418 13.233,6.904 C13.707,7.376 14.336,7.619 15.107,7.619 C15.879,7.619 16.507,7.376 17.006,6.88 M11.523,8.427 C10.574,7.526 10.11,6.395 10.11,5.021 C10.11,3.637 10.598,2.494 11.583,1.593 C12.544,0.726 13.719,0.289 15.131,0.289 C16.543,0.289 17.742,0.739 18.703,1.639 C19.664,2.528 20.139,3.637 20.139,4.942 C20.139,6.349 19.652,7.516 18.679,8.439 C17.718,9.328 16.531,9.778 15.119,9.778 C13.658,9.778 12.461,9.328 11.523,8.427" fill="#000000"/>
    <path d="M24.515,4.594 C25.334,4.594 25.737,4.224 25.737,3.486 C25.737,2.748 25.346,2.377 24.539,2.377 L23.8,2.377 L23.8,4.594 z M21.43,0.612 L25.049,0.612 C25.952,0.612 26.675,0.855 27.256,1.327 C27.849,1.835 28.159,2.515 28.159,3.381 C28.159,4.606 27.636,5.414 26.592,5.796 L29.025,9.454 L26.188,9.454 L24.278,6.337 L23.8,6.337 L23.8,9.454 L21.43,9.454 z" fill="#000000"/>
    <path d="M31.246,2.917 L29.322,2.917 L29.322,0.611 L35.54,0.611 L35.54,2.917 L33.615,2.917 L33.615,9.454 L31.246,9.454 z" fill="#000000"/>
    <path d="M37.036,0.611 L39.406,0.611 L39.406,3.735 L42.734,3.735 L42.734,0.611 L45.105,0.611 L45.105,9.454 L42.734,9.454 L42.734,6.042 L39.406,6.042 L39.406,9.454 L37.036,9.454 z" fill="#000000"/>
    <path d="M49.96,4.594 C50.778,4.594 51.182,4.224 51.182,3.486 C51.182,2.748 50.791,2.377 49.983,2.377 L49.245,2.377 L49.245,4.594 z M46.875,0.612 L50.494,0.612 C51.396,0.612 52.12,0.855 52.701,1.327 C53.294,1.835 53.603,2.515 53.603,3.381 C53.603,4.606 53.081,5.414 52.037,5.796 L54.47,9.454 L51.633,9.454 L49.723,6.337 L49.245,6.337 L49.245,9.454 L46.875,9.454 z" fill="#000000"/>
    <path d="M61.706,6.88 C62.192,6.395 62.441,5.761 62.441,4.986 C62.441,4.271 62.192,3.671 61.693,3.187 C61.195,2.701 60.566,2.459 59.818,2.459 C59.06,2.459 58.441,2.713 57.943,3.197 C57.458,3.683 57.208,4.305 57.208,5.056 C57.208,5.806 57.445,6.418 57.932,6.904 C58.406,7.376 59.036,7.619 59.807,7.619 C60.579,7.619 61.207,7.376 61.706,6.88 M56.224,8.427 C55.273,7.526 54.81,6.395 54.81,5.021 C54.81,3.637 55.298,2.494 56.283,1.593 C57.244,0.726 58.419,0.289 59.831,0.289 C61.244,0.289 62.441,0.739 63.402,1.639 C64.363,2.528 64.839,3.637 64.839,4.942 C64.839,6.349 64.352,7.516 63.379,8.439 C62.418,9.328 61.23,9.778 59.818,9.778 C58.358,9.778 57.161,9.328 56.224,8.427" fill="#000000"/>
    <path d="M69.477,4.675 C70.414,4.675 70.877,4.282 70.877,3.486 C70.877,2.725 70.426,2.354 69.5,2.354 L68.691,2.354 L68.691,4.675 z M66.32,0.612 L70.379,0.612 C71.257,0.612 71.969,0.888 72.479,1.465 C72.991,1.997 73.239,2.712 73.239,3.579 C73.239,4.408 72.991,5.079 72.479,5.586 C71.981,6.106 71.293,6.372 70.45,6.372 L68.691,6.372 L68.691,9.454 L66.32,9.454 z" fill="#000000"/>
    <path d="M74.424,0.611 L74.424,2.919 L93.46,2.919 L93.46,20.603 L95.832,20.603 L95.832,0.611 z" fill="#000000"/>
    <path d="M44.384,16.331 L47.386,11.761 L47.39,11.761 L49.757,11.761 L49.757,20.604 L47.39,20.604 L47.39,15.415 L47.386,15.415 L45.023,19.022 L43.766,19.022 L41.391,15.415 L41.387,15.415 L41.387,20.604 L39.011,20.604 L39.011,11.761 L41.387,11.761 z" fill="#000000"/>
    <path d="M57.08,16.331 L60.081,11.761 L60.085,11.761 L62.453,11.761 L62.453,20.604 L60.085,20.604 L60.085,15.415 L60.081,15.415 L57.719,19.022 L56.462,19.022 L54.087,15.415 L54.078,15.415 L54.077,20.604 L51.707,20.604 L51.707,11.761 L54.082,11.761 z" fill="#000000"/>
    <path d="M24.004,15.743 C24.822,15.743 25.226,15.374 25.226,14.635 C25.226,13.896 24.835,13.526 24.027,13.526 L23.289,13.526 L23.289,15.743 z M20.919,11.761 L24.538,11.761 C25.44,11.761 26.164,12.004 26.745,12.477 C27.339,12.985 27.647,13.665 27.647,14.531 C27.647,15.755 27.125,16.563 26.081,16.945 L28.514,20.603 L25.677,20.603 L23.767,17.487 L23.289,17.487 L23.289,20.603 L20.919,20.603 z" fill="#000000"/>
  </g>
</svg>
